<?xml version="1.0" encoding="utf-8"?>
<!-- Generator: Adobe Illustrator 24.0.1, SVG Export Plug-In . SVG Version: 6.00 Build 0)  -->
<svg version="1.1" id="Layer_1" xmlns="http://www.w3.org/2000/svg" xmlns:xlink="http://www.w3.org/1999/xlink" x="0px" y="0px"
	 viewBox="0 0 47.06 47.06" style="enable-background:new 0 0 47.06 47.06;" xml:space="preserve">
<style type="text/css">
	.st0{fill:#CF2B90;}
	.st1{fill:#FFFFFF;}
	.st2{fill:none;}
</style>
<g>
	<circle class="st0" cx="23.78" cy="23.84" r="20"/>
	<g>
		<g>
			<g>
				<path class="st1" d="M20.7,17.33v21.24h8.95V17.33H20.7z M23.18,36.99h-1.33v-1.47h1.33V36.99z M23.18,34.62h-1.33v-1.47h1.33
					V34.62z M23.18,32.25h-1.33v-1.47h1.33V32.25z M23.18,29.88h-1.33v-1.47h1.33V29.88z M23.18,27.51h-1.33v-1.47h1.33V27.51z
					 M23.18,25h-1.33v-1.47h1.33V25z M23.18,22.48h-1.33v-1.47h1.33V22.48z M23.18,19.97h-1.33V18.5h1.33V19.97z M25.83,36.99h-1.33
					v-1.47h1.33V36.99z M25.83,34.62h-1.33v-1.47h1.33V34.62z M25.83,32.25h-1.33v-1.47h1.33V32.25z M25.83,29.88h-1.33v-1.47h1.33
					V29.88z M25.83,27.51h-1.33v-1.47h1.33V27.51z M25.83,25h-1.33v-1.47h1.33V25z M25.83,22.48h-1.33v-1.47h1.33V22.48z
					 M25.83,19.97h-1.33V18.5h1.33V19.97z M28.49,36.99h-1.33v-1.47h1.33V36.99z M28.49,34.62h-1.33v-1.47h1.33V34.62z M28.49,32.25
					h-1.33v-1.47h1.33V32.25z M28.49,29.88h-1.33v-1.47h1.33V29.88z M28.49,27.51h-1.33v-1.47h1.33V27.51z M28.49,25h-1.33v-1.47
					h1.33V25z M28.49,22.48h-1.33v-1.47h1.33V22.48z M28.49,19.97h-1.33V18.5h1.33V19.97z"/>
			</g>
		</g>
		<g>
			<polygon class="st2" points="30.78,16.29 30.78,38.17 32.76,38.17 32.76,17.69 24.84,10.32 24.84,16.18 24.84,16.18 24.84,16.29 
				30.21,16.29 			"/>
			<polygon class="st1" points="32.76,38.17 30.78,38.17 30.78,38.57 33.23,38.57 32.76,38.57 			"/>
			<polygon class="st1" points="30.22,38.57 30.22,38.57 30.22,38.35 			"/>
			<polygon class="st1" points="30.78,38.17 30.78,16.29 30.21,16.29 30.27,16.29 30.27,16.75 30.21,16.75 30.22,38.35 30.22,38.17 
							"/>
			<polygon class="st1" points="30.22,38.17 30.22,38.35 30.22,38.57 30.78,38.57 30.78,38.17 			"/>
			<polygon class="st1" points="24.27,9.11 24.27,16.29 24.84,16.29 24.84,16.18 24.84,16.18 24.84,10.32 32.76,17.69 32.76,38.17 
				33.23,38.17 33.23,17.43 			"/>
			<rect x="32.76" y="38.17" class="st1" width="0.47" height="0.4"/>
			<polygon class="st1" points="24.84,16.29 24.84,16.38 24.27,16.38 24.27,16.75 30.21,16.75 30.21,16.29 			"/>
			<rect x="30.21" y="16.29" class="st1" width="0.07" height="0.46"/>
			<rect x="24.27" y="16.29" class="st1" width="0.58" height="0.09"/>
		</g>
		<g>
			<g>
				<path class="st1" d="M19.23,21.74c-2.04-0.8-4.09-0.01-4.11,0l-0.05,0.02v0.63l0.09-0.02c0.05-0.01,0.1-0.02,0.16-0.03
					l0.06-0.01v-0.37c0.12-0.04,0.54-0.16,1.11-0.23c0.62-0.07,1.54-0.09,2.49,0.23v0.37l0.06,0.01c0.1,0.02,0.15,0.03,0.15,0.03
					l0.09,0.02v-0.63L19.23,21.74z M15.23,22.2C15.23,22.2,15.22,22.2,15.23,22.2l-0.01-0.34c0,0,0.01,0,0.01,0L15.23,22.2z
					 M17.4,21.53c0.05,0,0.11,0,0.16,0C17.5,21.54,17.45,21.54,17.4,21.53z M19.13,22.2L19.13,22.2l0-0.3l-0.01-0.05
					c0,0,0.01,0,0.01,0V22.2z"/>
			</g>
			<g>
				<path class="st1" d="M19.9,22.77c-0.2-0.15-0.57-0.23-0.83-0.28c-0.22-0.04-0.46-0.07-0.75-0.11c-0.78-0.09-1.56-0.1-2.27-0.02
					c-0.43,0.05-0.81,0.12-1.15,0.21l-0.06,0.02c-0.19,0.05-0.51,0.13-0.51,0.4v2.11l0.12-0.09c0.04-0.03,0.09-0.06,0.14-0.09
					c0.5-0.25,1.32-0.33,1.33-0.33c1.07-0.17,2.23-0.04,2.24-0.04c0.77,0.06,1.39,0.25,1.6,0.35C19.87,24.96,19.9,25,19.9,25
					l0.13,0.17V23.1C20.04,22.98,20.03,22.87,19.9,22.77z M14.63,23.05c0.02-0.01,0.03-0.03,0.04-0.05c0.2-0.06,0.76-0.23,1.54-0.32
					c0.87-0.1,2.19-0.13,3.52,0.33v1.48c-2.34-0.63-4.61-0.12-5.1,0V23.05z"/>
			</g>
			<g>
				<path class="st1" d="M19.9,25.33c-0.2-0.15-0.57-0.23-0.83-0.28c-0.22-0.04-0.46-0.07-0.75-0.11c-0.78-0.09-1.56-0.1-2.27-0.02
					c-0.43,0.05-0.81,0.12-1.15,0.21l-0.06,0.02c-0.19,0.05-0.51,0.13-0.51,0.4v2.11l0.12-0.09c0.04-0.03,0.09-0.06,0.14-0.09
					c0.5-0.25,1.32-0.33,1.33-0.33c1.07-0.17,2.23-0.04,2.24-0.04c0.77,0.06,1.39,0.25,1.6,0.35c0.1,0.05,0.14,0.09,0.14,0.09
					l0.13,0.17v-2.07C20.04,25.53,20.03,25.42,19.9,25.33z M14.63,25.61c0.02-0.01,0.03-0.03,0.04-0.05
					c0.2-0.06,0.76-0.23,1.54-0.32c0.87-0.1,2.19-0.13,3.52,0.33v1.48c-2.34-0.63-4.61-0.12-5.1,0V25.61z"/>
			</g>
			<g>
				<path class="st1" d="M19.9,27.82c-0.2-0.15-0.57-0.23-0.83-0.28c-0.22-0.04-0.46-0.07-0.75-0.11c-0.78-0.09-1.56-0.1-2.27-0.02
					c-0.43,0.05-0.81,0.12-1.15,0.21l-0.06,0.02c-0.19,0.05-0.51,0.13-0.51,0.4v2.11l0.12-0.09c0.04-0.03,0.09-0.06,0.14-0.09
					c0.5-0.25,1.32-0.33,1.33-0.33c1.07-0.17,2.23-0.04,2.24-0.04c0.77,0.06,1.39,0.25,1.6,0.35c0.1,0.05,0.14,0.09,0.14,0.09
					l0.13,0.17v-2.07C20.04,28.03,20.03,27.92,19.9,27.82z M14.63,28.1c0.02-0.01,0.03-0.03,0.04-0.05c0.2-0.06,0.76-0.23,1.54-0.32
					c0.87-0.1,2.19-0.13,3.52,0.33v1.48c-2.34-0.63-4.61-0.12-5.1,0V28.1z"/>
			</g>
			<g>
				<path class="st1" d="M19.9,30.33c-0.2-0.15-0.57-0.23-0.83-0.28c-0.22-0.04-0.46-0.07-0.75-0.11c-0.78-0.09-1.56-0.1-2.27-0.02
					c-0.43,0.05-0.81,0.12-1.15,0.21l-0.06,0.02c-0.19,0.05-0.51,0.13-0.51,0.4v2.11l0.12-0.09c0.04-0.03,0.09-0.06,0.14-0.09
					c0.5-0.25,1.32-0.33,1.33-0.33c1.07-0.17,2.23-0.04,2.24-0.04c0.77,0.06,1.39,0.25,1.6,0.35c0.1,0.05,0.14,0.09,0.14,0.09
					l0.13,0.17v-2.07C20.04,30.54,20.03,30.43,19.9,30.33z M14.63,30.61c0.02-0.01,0.03-0.03,0.04-0.05
					c0.2-0.06,0.76-0.23,1.54-0.32c0.87-0.1,2.19-0.13,3.52,0.33v1.48c-2.34-0.63-4.61-0.12-5.1,0V30.61z"/>
			</g>
			<g>
				<path class="st1" d="M19.9,32.83c-0.2-0.15-0.57-0.23-0.83-0.28c-0.22-0.04-0.46-0.07-0.75-0.11c-0.78-0.09-1.56-0.1-2.27-0.02
					c-0.43,0.05-0.81,0.12-1.15,0.21l-0.06,0.02c-0.19,0.05-0.51,0.13-0.51,0.4v2.11l0.12-0.09c0.04-0.03,0.09-0.06,0.14-0.09
					c0.5-0.25,1.32-0.33,1.33-0.33c1.07-0.17,2.23-0.04,2.24-0.04c0.77,0.06,1.39,0.25,1.6,0.35c0.1,0.05,0.14,0.09,0.14,0.09
					l0.13,0.17v-2.07C20.04,33.04,20.03,32.93,19.9,32.83z M14.63,33.11c0.02-0.01,0.03-0.03,0.04-0.05
					c0.2-0.06,0.76-0.23,1.54-0.32c0.87-0.1,2.19-0.13,3.52,0.33v1.48c-2.34-0.63-4.61-0.12-5.1,0V33.11z"/>
			</g>
			<g>
				<path class="st1" d="M19.9,35.29c-0.2-0.15-0.57-0.23-0.83-0.28c-0.22-0.04-0.46-0.07-0.75-0.11c-0.78-0.09-1.56-0.1-2.27-0.02
					c-0.43,0.05-0.81,0.12-1.15,0.21l-0.06,0.02c-0.19,0.05-0.51,0.13-0.51,0.4v3.06h5.71v-2.96C20.04,35.5,20.03,35.38,19.9,35.29z
					 M14.63,35.53c0.16-0.05,0.75-0.23,1.58-0.33c0.87-0.1,2.19-0.13,3.52,0.33v2.76h-5.1V35.53z"/>
			</g>
		</g>
	</g>
</g>
</svg>
