<?xml version="1.0" encoding="utf-8"?>
<!-- Generator: Adobe Illustrator 24.0.1, SVG Export Plug-In . SVG Version: 6.00 Build 0)  -->
<svg version="1.1" id="Layer_1" xmlns="http://www.w3.org/2000/svg" xmlns:xlink="http://www.w3.org/1999/xlink" x="0px" y="0px"
	 viewBox="0 0 47.06 47.06" style="enable-background:new 0 0 47.06 47.06;" xml:space="preserve">
<style type="text/css">
	.st0{fill:#FFFFFF;}
	.st1{fill:#7F287F;}
</style>
<g>
	<g>
		<path class="st0" d="M39.96,33.73c-0.01-0.02-0.02-0.04-0.03-0.06c-0.12-0.15-0.28-0.24-0.45-0.33c-1.03-0.53-2.13-1.07-3.31-1.43
			c-0.19-0.06-0.4-0.11-0.59-0.01c-0.14,0.07-0.25,0.23-0.29,0.43c-0.02,0.12-0.02,0.25-0.02,0.37c0,0.05,0,0.09,0,0.14
			c0,0.05,0,0.1-0.01,0.15c-0.01,0.12-0.01,0.25,0.01,0.38c0.03,0.22,0.14,0.39,0.29,0.47c0.13,0.07,0.27,0.07,0.4,0.07l3.78,0
			c0.04,0,0.16-0.01,0.21-0.07c0.02-0.03,0.03-0.06,0.02-0.09L39.96,33.73z M39.42,33.66l-3.57,0c-0.01,0-0.34-0.03-0.37-0.39v-0.72
			c0-0.11,0.05-0.25,0.12-0.34c0.13-0.17,0.33-0.13,0.53-0.07c0.43,0.14,0.85,0.31,1.22,0.47c0.44,0.19,0.89,0.39,1.37,0.62
			c0.2,0.09,0.39,0.19,0.59,0.29l0.27,0.14c0,0,0.01,0,0.01,0.01c-0.01,0-0.03,0-0.05,0L39.42,33.66z M39.92,33.76L39.92,33.76
			L39.92,33.76L39.92,33.76z"/>
		<path class="st0" d="M33.65,25.32c-0.78-1.44-2.05-2.29-3.57-2.4c-1.57-0.11-3.18,0.53-4.19,1.68c-1.77,2-2.01,5.32-0.55,7.55
			c0.83,1.26,2.1,1.95,3.6,1.95c0.06,0,0.12,0,0.18,0c1.87-0.07,3.66-1.17,4.57-2.8C34.65,29.58,34.63,27.12,33.65,25.32z
			 M33.08,30.89c-0.78,1.4-2.31,2.34-3.91,2.4c-1.35,0.05-2.49-0.54-3.22-1.65c-1.25-1.91-1.05-4.76,0.47-6.48
			c0.8-0.91,2.03-1.45,3.28-1.45c0.1,0,0.2,0,0.3,0.01c1.3,0.09,2.38,0.82,3.04,2.05C33.87,27.32,33.89,29.42,33.08,30.89z"/>
		<path class="st0" d="M30.04,26.91c-0.48-0.12-1.06,0.08-1.47,0.49c-0.21,0.21-0.34,0.45-0.4,0.7c-0.13,0.55-0.04,1.12,0.23,1.52
			c0.2,0.3,0.5,0.5,0.86,0.56c0.08,0.01,0.16,0.02,0.24,0.02c0.35,0,0.71-0.12,1-0.34c0.67-0.51,0.84-1.54,0.39-2.3
			C30.69,27.23,30.38,26.99,30.04,26.91z M30.25,29.55c-0.27,0.21-0.63,0.3-0.94,0.25c-0.26-0.05-0.48-0.19-0.63-0.41
			c-0.2-0.31-0.27-0.77-0.17-1.19c0.04-0.19,0.15-0.37,0.3-0.53c0.25-0.25,0.58-0.4,0.9-0.4c0.07,0,0.15,0.01,0.21,0.02
			c0.25,0.06,0.48,0.24,0.62,0.49C30.89,28.36,30.76,29.16,30.25,29.55L30.25,29.55z"/>
		<path class="st0" d="M35.15,18.23c-0.29,0.17-0.55,0.39-0.77,0.65c-1.08,1.25-1.21,3.28-0.3,4.63c0.52,0.77,1.32,1.19,2.27,1.19
			c0.04,0,0.08,0,0.12,0c1.17-0.04,2.3-0.71,2.87-1.71c0.83-1.45,0.51-3.42-0.73-4.49C37.69,17.7,36.24,17.59,35.15,18.23z
			 M38.3,18.91c1.05,0.9,1.33,2.58,0.62,3.81c-0.48,0.84-1.44,1.41-2.43,1.44c-0.83,0.03-1.55-0.32-2.01-0.99
			c-0.76-1.12-0.64-2.88,0.26-3.93c0.19-0.22,0.41-0.4,0.65-0.55c0.4-0.23,0.86-0.35,1.31-0.35C37.28,18.34,37.86,18.53,38.3,18.91z
			"/>
		<path class="st0" d="M36.5,22.35c0.03,0,0.05,0,0.08,0c0.39,0,0.73-0.21,0.93-0.56c0.22-0.4,0.19-0.93-0.07-1.3
			c-0.16-0.23-0.4-0.36-0.68-0.38c-0.31-0.02-0.63,0.11-0.85,0.34c-0.31,0.33-0.41,0.83-0.26,1.24
			C35.8,22.07,36.11,22.32,36.5,22.35z M36.14,20.67c0.04-0.04,0.08-0.08,0.13-0.11c0.01,0,0.01-0.01,0.02-0.01
			c0.01,0,0.01-0.01,0.02-0.01c0.04-0.02,0.07-0.04,0.11-0.06c0.01,0,0.02-0.01,0.03-0.01l0.02-0.01c0.04-0.01,0.07-0.02,0.1-0.03
			c0.01,0,0.03,0,0.04,0l0.03,0c0.03,0,0.06-0.01,0.09-0.01c0.01,0,0.01,0,0.02,0c0.19,0.01,0.35,0.1,0.46,0.26
			c0.19,0.27,0.21,0.66,0.05,0.95c-0.13,0.23-0.35,0.37-0.6,0.39h0c-0.03,0-0.07,0-0.11,0c-0.27-0.02-0.49-0.19-0.59-0.45
			C35.84,21.28,35.92,20.91,36.14,20.67z"/>
		<path class="st0" d="M7.59,29.56l7.03,4.52l0.01,0.01h12.43l-9.19-4.52L7.59,29.56z M12.76,30.05l2.66,1.63h-3.38L9.6,30.05H12.76
			z M16.28,32.17l3.14,1.52h-4.46l-2.42-1.52H16.28z M17.11,31.68l-2.82-1.63h3.36l3.31,1.63H17.11z M20.67,33.69l-2.84-1.52h4.28
			l3.09,1.52H20.67z"/>
		<path class="st0" d="M26.45,20.38c0.16,0.07,0.32,0.14,0.48,0.21c1.06,0.47,2.18,0.97,3.27,1.45c1.09,0.49,2.22,0.99,3.29,1.46
			l0.02-0.04l0,0l0,0l0.02-0.04l0,0c-0.16-0.07-0.42-0.82-0.47-1.06c-0.08-0.38-0.12-0.77-0.12-1.16c0.02-0.83,0.24-1.59,0.64-2.2
			c0.57-0.86,1.35-1.36,2.4-1.54c0.2-0.03,0.56-0.05,0.72,0.01l0.03-0.09c-0.21-0.08-0.56-0.21-0.9-0.34
			c-0.31-0.11-0.6-0.23-0.8-0.3l-7.21-2.78c-1.41-0.5-2.59-0.5-3.49,0c-1.4,0.77-1.89,2.6-1.1,4.07
			C23.91,19.29,25.2,19.84,26.45,20.38z M34.27,17.54c-0.71,0.41-1.28,1.08-1.6,1.88c-0.2,0.49-0.31,1.02-0.32,1.56
			c-0.01,0.28,0.01,0.57,0.05,0.84c0.02,0.14,0.05,0.27,0.08,0.4c0,0.01,0.01,0.04,0.01,0.06c0.02,0.09,0.03,0.16,0.05,0.21
			c-0.33-0.16-0.68-0.31-1.01-0.45c-0.17-0.07-0.34-0.15-0.51-0.22l-2.56-1.13c-0.51-0.22-1.02-0.45-1.53-0.67
			c-0.14-0.06-0.28-0.12-0.42-0.18c-1.07-0.46-2.18-0.93-2.74-1.99c-0.66-1.24-0.25-2.77,0.92-3.42c0.38-0.21,0.82-0.31,1.31-0.31
			c0.5,0,1.05,0.11,1.65,0.32l6.25,2.41c0.17,0.07,0.42,0.15,0.66,0.22c0.18,0.06,0.36,0.12,0.51,0.17
			C34.62,17.35,34.52,17.4,34.27,17.54L34.27,17.54z"/>
		<path class="st0" d="M17.45,28.66c0.02,0.01,7.22,3.47,7.29,3.51l0.13,0.06l-0.06-0.13c-0.33-0.64-0.69-1.41-0.86-2.2
			c-0.02-0.08-0.03-0.16-0.05-0.23c-0.19-1.08-0.13-2.17,0.18-3.17c0.66-2.13,2.48-3.71,4.53-3.92c0.2-0.02,0.65-0.05,0.88,0
			l0.44,0.09l-0.41-0.18c-0.12-0.05-0.4-0.17-0.68-0.29c-0.28-0.12-0.56-0.24-0.67-0.29l-5.18-2.28c-1.57-0.69-3.05-1.34-4.76-0.91
			c-1.66,0.42-2.98,1.6-3.46,3.08C13.89,24.55,15.04,27.5,17.45,28.66z M27.46,22.36L27.46,22.36L27.46,22.36L27.46,22.36z
			 M26.98,22.38c-0.03,0.01-0.05,0.02-0.07,0.02h0c-0.17,0.05-0.35,0.12-0.54,0.21c-1.34,0.66-2.44,2.03-2.95,3.67
			c-0.14,0.44-0.23,0.89-0.27,1.34c-0.01,0.09-0.02,0.17-0.02,0.26c-0.02,0.31-0.02,0.63,0,0.95c0.04,0.59,0.11,1.29,0.39,1.95
			c-0.64-0.31-1.29-0.63-1.92-0.93c-0.26-0.12-0.51-0.25-0.77-0.37l-3.16-1.52c-2.07-1-3.07-3.54-2.31-5.92
			c0.41-1.27,1.54-2.28,2.97-2.64c0.33-0.08,0.64-0.12,0.95-0.12c1.09,0,2.11,0.45,3.17,0.91l4.55,2c0.1,0.04,0.16,0.07,0.22,0.09
			c0,0,0.01,0,0.01,0.01C27.15,22.33,27.07,22.36,26.98,22.38z"/>
		<path class="st0" d="M35.31,26.7c-0.27-0.77-0.68-1.34-1.21-1.72l0,0h0l-0.05,0.08h0c0.01,0.01,0.04,0.06,0.05,0.09
			c0.01,0.02,0.01,0.03,0.02,0.04c0.07,0.13,0.14,0.27,0.21,0.42c0.21,0.48,0.38,0.99,0.48,1.51c0.27,1.36,0.07,2.78-0.58,4.1
			c-0.28,0.57-0.62,1.12-1.03,1.63l-0.04,0.05l1.31,0.66l0.02-0.05c0.23-0.66,0.44-1.36,0.65-2.12
			C35.55,29.87,35.86,28.26,35.31,26.7z M33.73,32.73c0.34-0.6,0.65-1.14,0.89-1.68c0.5-1.13,0.67-2.35,0.49-3.63
			c-0.05-0.35-0.12-0.7-0.21-1.03c0.55,1.19,0.38,2.95,0.38,2.97c-0.07,0.94-0.89,3.26-1.03,3.64L33.73,32.73z"/>
	</g>
</g>
<g>
	<circle class="st1" cx="23.78" cy="23.84" r="20"/>
	<g>
		<g>
			<path class="st0" d="M15.59,20.97c-0.02,0.02-0.04,0.03-0.06,0.05c-0.48,0.54-0.92,0.44-1.18-0.28c-0.04-0.11-0.07-0.23-0.1-0.35
				c-0.11,0.03-0.21,0.06-0.3,0.08c-0.3,0.04-0.58,0-0.76-0.31c-0.18-0.33-0.17-0.7,0.05-0.98c0.22-0.28,0.26-0.45,0.01-0.74
				c-0.22-0.25-0.26-0.62-0.08-0.95c0.19-0.35,0.5-0.38,0.82-0.34c0.08,0.01,0.16,0.05,0.25,0.07c0.19-0.43,0.26-1.03,0.84-0.98
				c0.48,0.05,0.56,0.55,0.7,0.94c0.31,0,0.63,0,1.04,0c0.08-0.18,0.2-0.46,0.32-0.74c0.04-0.08,0.06-0.18,0.11-0.25
				c0.48-0.57,0.97-1.14,1.45-1.7c0.08-0.09,0.17-0.18,0.26-0.26c-0.27-0.7-0.26-0.78,0.25-1.54c-0.31-0.35-0.59-0.75-0.33-1.26
				c0.24-0.48,0.67-0.41,1.07-0.3c0.18-0.43,0.26-1.01,0.81-0.98c0.5,0.03,0.6,0.55,0.73,0.98c0.86-0.19,1.04-0.06,1.21,0.85
				c0.32-0.06,0.63-0.13,0.95-0.18c1.86-0.3,3.65,0.01,5.34,0.94c0.57,0.31,1.11,0.71,1.6,1.15c1.12,1,2.03,2.21,2.69,3.64
				c0.64,1.39,1.07,2.87,1.12,4.45c0.05,1.71,0.05,3.43,0.05,5.15c0.01,3.16,0,6.32,0,9.48c0,0.24,0.06,0.33,0.27,0.3
				c0.07-0.01,0.17-0.03,0.22,0.01c0.1,0.08,0.17,0.2,0.25,0.31c-0.09,0.08-0.17,0.22-0.26,0.24c-0.22,0.04-0.45,0.02-0.68,0.02
				c-3.7,0-7.39,0-11.09-0.01c-0.18,0-0.4,0.06-0.43-0.25c-0.02-0.2,0.16-0.33,0.44-0.33c2.07,0,4.13,0,6.2,0.01
				c0.23,0,0.3-0.07,0.29-0.33c-0.01-1.86,0.3-3.65,0.85-5.4c0.14-0.45,0.31-0.89,0.46-1.34c0.03-0.08,0.04-0.16,0.07-0.25
				c-0.4-0.18-0.79-0.34-1.17-0.52c-0.91-0.42-1.73-1.02-2.52-1.67c-0.81-0.67-1.53-1.45-2.18-2.32c-1.38-1.86-2.37-3.95-2.92-6.3
				c-0.28-1.2-0.46-2.41-0.48-3.65c0-0.12-0.03-0.24-0.05-0.46c-0.55,0.41-1.05,0.78-1.55,1.15c0.01,0.02,0.01,0.05,0.02,0.07
				c0.33,0.01,0.64,0.1,0.75,0.48c0.14,0.47-0.06,0.84-0.38,1.16c0.07,0.1,0.13,0.2,0.2,0.29c0.27,0.37,0.31,0.77,0.12,1.1
				c-0.15,0.25-0.53,0.37-0.89,0.26c-0.05-0.01-0.1-0.03-0.16-0.05c-0.12,0.47-0.28,0.96-0.79,0.94c-0.47-0.02-0.64-0.48-0.73-0.94
				c-0.28,0.02-0.46,0.16-0.53,0.47c-0.03,0.13-0.09,0.24-0.12,0.37c-0.08,0.32-0.26,0.64,0.15,0.91c0.16,0.11,0.21,0.43,0.31,0.68
				c0.39-0.08,0.87-0.22,1.09,0.36c0.19,0.47-0.03,0.88-0.37,1.2c0.34,0.35,0.58,0.76,0.34,1.25c-0.24,0.49-0.67,0.43-1.1,0.29
				c-0.08,0.56-0.27,1.01-0.86,1.03c-0.01,0.07-0.01,0.14-0.01,0.2c0,3.54,0,7.07,0,10.61c0,0.4,0,0.4,0.35,0.4
				c0.51,0,1.02,0,1.53,0c0.08,0,0.19-0.03,0.25,0.01c0.11,0.08,0.24,0.19,0.26,0.31c0.03,0.18-0.13,0.24-0.27,0.25
				c-0.56,0.01-1.12,0.01-1.68,0.01c-1.51,0-3.01,0-4.52,0c-0.18,0-0.42,0.05-0.45-0.26c-0.02-0.18,0.19-0.31,0.45-0.31
				c0.69,0,1.39-0.01,2.08,0c0.18,0,0.26-0.04,0.26-0.28c-0.01-3.96,0-7.92-0.01-11.88c0-0.16-0.03-0.32-0.06-0.47
				c-0.08-0.47,0.09-0.82,0.35-1.09c-0.13-0.29-0.26-0.56-0.36-0.84c-0.04-0.11,0-0.26,0.02-0.38
				C15.47,21.65,15.53,21.31,15.59,20.97c0-0.01,0.01-0.02,0.01-0.02S15.6,20.96,15.59,20.97z M18.4,15.65
				c-0.09,0.09-0.18,0.18-0.29,0.29c0.09,0.04,0.14,0.06,0.2,0.08C18.35,15.89,18.37,15.77,18.4,15.65c0-0.01,0-0.02,0-0.03
				C18.4,15.64,18.4,15.65,18.4,15.65z M23.11,14.19c-0.25,0.09-0.46,0.16-0.68,0.23c-0.17,0.05-0.23,0.15-0.21,0.35
				c0.09,0.99,0.12,2,0.28,2.97c0.48,2.78,1.58,5.23,3.24,7.34c0.7,0.89,1.5,1.67,2.37,2.33c0.9,0.67,1.85,1.23,2.87,1.64
				c0.25,0.1,0.46,0.1,0.68-0.06c0.25-0.18,0.52-0.34,0.77-0.51c0.32-0.21,0.38-0.47,0.21-0.82c-0.81-1.65-1.37-3.41-1.65-5.27
				c-0.2-1.34-0.3-2.7-0.17-4.05c0.07-0.69,0.15-1.36-0.46-1.83c-0.01-0.01-0.03-0.02-0.06-0.03c-0.06,0.24-0.12,0.47-0.17,0.7
				c-0.1,0.42-0.22,0.46-0.52,0.21c-0.67-0.53-1.34-1.05-2.13-1.34c-0.18-0.07-0.23-0.19-0.21-0.39c0.02-0.22,0.03-0.43,0.04-0.65
				c0.02-0.68,0.01-0.68-0.6-0.83c-0.18-0.04-0.22,0.02-0.23,0.2c-0.01,0.32-0.04,0.64-0.06,0.96c-0.02,0.22-0.11,0.36-0.32,0.32
				c-0.88-0.17-1.75-0.12-2.62,0.06c-0.28,0.06-0.38-0.04-0.39-0.37C23.11,14.97,23.11,14.6,23.11,14.19z M22.77,13.71
				c0.01,0,0.07-0.02,0.12-0.03c0.58-0.1,1.17-0.26,1.75-0.29c1.28-0.07,2.51,0.2,3.68,0.86c0.77,0.43,1.47,0.96,2.1,1.62
				c0.91,0.97,1.6,2.11,2.08,3.42c0.42,1.15,0.65,2.35,0.66,3.6c0.01,1.6,0,3.21,0,4.81c0,0.1,0,0.2,0,0.35
				c0.28-0.16,0.52-0.29,0.75-0.45c0.06-0.04,0.09-0.17,0.09-0.26c0.01-0.35,0.01-0.7,0-1.05c-0.02-1.54,0.02-3.09-0.08-4.63
				c-0.13-2.02-0.83-3.83-1.9-5.44c-0.58-0.87-1.27-1.64-2.07-2.23c-0.66-0.48-1.37-0.91-2.11-1.21c-1.66-0.68-3.36-0.73-5.08-0.23
				c-0.17,0.05-0.34,0.08-0.49,0.12C22.45,13.02,22.6,13.34,22.77,13.71z M32.74,28.92c-0.4,0.23-0.75,0.43-1.09,0.64
				c-0.05,0.03-0.1,0.1-0.12,0.17c-0.3,0.93-0.63,1.85-0.88,2.79c-0.36,1.32-0.49,2.69-0.53,4.07c-0.01,0.25,0.05,0.35,0.29,0.34
				c0.69-0.02,1.39-0.01,2.08,0c0.22,0,0.26-0.09,0.26-0.31c-0.01-1.65,0-3.3,0-4.95C32.74,30.77,32.74,29.87,32.74,28.92z
				 M15.93,24.82c0,0.08-0.01,0.15-0.01,0.23c0,0.9,0.01,1.81,0.01,2.71c0,1.45-0.01,2.9-0.01,4.35c0,1.39,0,2.79,0,4.18
				c0,0.76-0.08,0.6,0.55,0.64c0.26,0.02,0.32-0.08,0.32-0.36c-0.01-3.58,0-7.17-0.01-10.75c0-0.37-0.11-0.74-0.16-1.1
				C16.35,24.75,16.16,24.78,15.93,24.82z M31.36,17.87c-0.33,3.08,0.13,5.99,1.33,8.77c0-1.45,0.03-2.88-0.01-4.31
				c-0.03-1.3-0.39-2.51-0.91-3.67C31.66,18.39,31.5,18.14,31.36,17.87z M34,28.14c-0.2,0.11-0.35,0.2-0.5,0.28
				c-0.23,0.12-0.34,0.3-0.33,0.61c0.01,2.45,0,4.9,0.01,7.35c0,0.6-0.08,0.53,0.48,0.53c0.36,0,0.36,0,0.36-0.39
				c0-2.68,0-5.36,0-8.03C34.02,28.39,34.01,28.29,34,28.14z M17.04,24.59c0.01,0.13,0.01,0.17,0.02,0.22
				c0.01,0.19,0.07,0.37,0.26,0.38c0.2,0.02,0.29-0.16,0.28-0.35c-0.01-0.25-0.05-0.5-0.1-0.74c-0.04-0.19-0.06-0.37,0.1-0.48
				c0.16-0.11,0.22,0.09,0.32,0.18c0.17,0.16,0.33,0.34,0.53,0.46c0.08,0.05,0.27-0.02,0.34-0.11c0.05-0.06,0.02-0.26-0.03-0.37
				c-0.13-0.29-0.4-0.31-0.64-0.36c-0.15-0.03-0.31-0.08-0.27-0.28c0.02-0.1,0.16-0.2,0.27-0.26c0.16-0.08,0.34-0.1,0.49-0.19
				c0.21-0.12,0.3-0.42,0.2-0.59c-0.09-0.15-0.34-0.18-0.52-0.02c-0.14,0.12-0.24,0.31-0.38,0.44c-0.08,0.08-0.21,0.11-0.31,0.16
				c-0.04-0.12-0.1-0.24-0.11-0.36c-0.01-0.09,0.07-0.19,0.08-0.29c0.02-0.2,0.06-0.41,0.03-0.6c-0.02-0.12-0.16-0.28-0.26-0.3
				c-0.18-0.03-0.27,0.16-0.26,0.34c0.01,0.26,0.05,0.52,0.1,0.77c0.03,0.17,0.09,0.35-0.09,0.45c-0.17,0.1-0.26-0.05-0.36-0.2
				c-0.1-0.15-0.22-0.28-0.35-0.39c-0.18-0.15-0.43-0.12-0.52,0.04c-0.09,0.16-0.02,0.43,0.18,0.55c0.17,0.1,0.38,0.13,0.56,0.22
				c0.1,0.05,0.17,0.17,0.25,0.26c-0.08,0.09-0.16,0.21-0.25,0.26c-0.16,0.08-0.34,0.09-0.5,0.17c-0.22,0.11-0.33,0.43-0.24,0.6
				c0.1,0.19,0.33,0.2,0.55,0.01c0.13-0.11,0.24-0.26,0.36-0.4c0.08-0.1,0.15-0.27,0.3-0.17c0.14,0.1,0.17,0.26,0.11,0.44
				C17.1,24.26,17.07,24.46,17.04,24.59z M20.43,14.25c0.01,0,0.02,0.01,0.03,0.01c0,0.04,0,0.08,0,0.11
				c0.01,0.19,0.06,0.37,0.26,0.38c0.2,0.02,0.3-0.16,0.3-0.34c0-0.24-0.05-0.48-0.1-0.71c-0.04-0.17-0.11-0.33,0.07-0.45
				c0.17-0.11,0.25,0.05,0.36,0.16c0.14,0.15,0.28,0.29,0.44,0.41c0.14,0.1,0.32,0.1,0.42-0.08c0.11-0.19,0.02-0.36-0.13-0.45
				c-0.16-0.1-0.33-0.17-0.5-0.23c-0.17-0.06-0.36-0.07-0.36-0.34c0-0.25,0.19-0.24,0.34-0.28c0.1-0.03,0.22-0.05,0.31-0.1
				c0.11-0.06,0.22-0.14,0.3-0.24c0.13-0.16,0.09-0.36-0.04-0.47c-0.08-0.06-0.26-0.05-0.35,0.02c-0.16,0.11-0.29,0.28-0.42,0.43
				c-0.11,0.13-0.21,0.28-0.38,0.16c-0.16-0.11-0.09-0.27-0.06-0.43c0.05-0.24,0.09-0.49,0.09-0.74c0-0.17-0.09-0.34-0.28-0.32
				c-0.2,0.02-0.28,0.18-0.27,0.37c0.02,0.26,0.09,0.51,0.11,0.77c0.01,0.11-0.01,0.29-0.08,0.33c-0.07,0.04-0.22-0.01-0.3-0.07
				c-0.15-0.13-0.27-0.3-0.42-0.45c-0.2-0.2-0.35-0.2-0.47-0.04c-0.14,0.2-0.12,0.4,0.09,0.55c0.19,0.12,0.42,0.16,0.62,0.26
				c0.09,0.05,0.22,0.17,0.21,0.25c-0.01,0.11-0.12,0.22-0.2,0.3c-0.04,0.04-0.13,0.02-0.19,0.05c-0.19,0.1-0.38,0.19-0.54,0.32
				c-0.06,0.05-0.07,0.25-0.04,0.35c0.03,0.08,0.18,0.14,0.27,0.13c0.11-0.01,0.23-0.07,0.31-0.15c0.12-0.11,0.21-0.27,0.34-0.37
				c0.08-0.07,0.23-0.12,0.3-0.08c0.07,0.04,0.1,0.22,0.09,0.33C20.55,13.82,20.48,14.03,20.43,14.25z M14.72,20.26
				c0,0.38,0.13,0.58,0.3,0.58c0.17-0.01,0.32-0.25,0.29-0.52c-0.02-0.19-0.07-0.39-0.12-0.57c-0.04-0.16-0.1-0.32,0.06-0.43
				c0.16-0.12,0.25,0.03,0.36,0.14c0.15,0.16,0.3,0.33,0.48,0.44c0.13,0.09,0.3,0.08,0.4-0.1c0.1-0.19,0.02-0.35-0.11-0.44
				c-0.17-0.11-0.36-0.19-0.55-0.24c-0.16-0.05-0.32-0.08-0.32-0.32c0-0.22,0.15-0.24,0.3-0.3c0.23-0.08,0.45-0.18,0.64-0.33
				c0.15-0.12,0.12-0.35-0.03-0.46c-0.09-0.07-0.28-0.06-0.37,0c-0.18,0.13-0.31,0.34-0.48,0.49c-0.08,0.07-0.23,0.13-0.3,0.08
				c-0.07-0.04-0.08-0.22-0.09-0.34c-0.01-0.08,0.05-0.16,0.06-0.24c0.02-0.2,0.07-0.41,0.04-0.61c-0.02-0.12-0.17-0.27-0.27-0.29
				c-0.17-0.03-0.27,0.15-0.26,0.34c0.01,0.26,0.08,0.52,0.1,0.77c0.01,0.12-0.04,0.25-0.06,0.38c-0.12-0.04-0.25-0.05-0.34-0.12
				c-0.16-0.13-0.29-0.3-0.44-0.45c-0.14-0.14-0.28-0.16-0.41,0.01c-0.14,0.18-0.11,0.37,0.04,0.49c0.17,0.13,0.37,0.22,0.56,0.28
				c0.17,0.05,0.35,0.06,0.34,0.32c0,0.23-0.17,0.25-0.33,0.3c-0.21,0.07-0.42,0.17-0.6,0.31c-0.07,0.05-0.09,0.27-0.05,0.37
				c0.03,0.08,0.19,0.13,0.29,0.13c0.09,0,0.19-0.06,0.27-0.13c0.13-0.12,0.23-0.28,0.36-0.39c0.08-0.07,0.23-0.12,0.3-0.08
				c0.06,0.04,0.09,0.22,0.08,0.33C14.82,19.91,14.75,20.13,14.72,20.26z M19.37,16.07c-0.02-0.32-0.13-0.52-0.31-0.51
				c-0.16,0.01-0.31,0.26-0.28,0.53c0.03,0.21,0.11,0.42,0.13,0.63c0.01,0.12-0.05,0.25-0.08,0.37c-0.11-0.04-0.23-0.05-0.32-0.12
				c-0.14-0.12-0.25-0.27-0.38-0.41c-0.19-0.2-0.38-0.22-0.49-0.05c-0.14,0.2-0.11,0.43,0.12,0.57c0.19,0.12,0.43,0.15,0.63,0.26
				c0.09,0.05,0.19,0.18,0.19,0.27c0,0.09-0.11,0.22-0.2,0.26c-0.15,0.08-0.34,0.07-0.47,0.17c-0.14,0.09-0.25,0.25-0.33,0.41
				c-0.02,0.04,0.09,0.26,0.13,0.25c0.16-0.01,0.32-0.05,0.46-0.14c0.14-0.09,0.23-0.27,0.36-0.38c0.08-0.07,0.23-0.12,0.3-0.08
				c0.07,0.05,0.08,0.22,0.09,0.33c0,0.08-0.06,0.16-0.07,0.24c-0.01,0.24-0.03,0.48-0.01,0.72c0.01,0.08,0.16,0.2,0.23,0.2
				c0.09-0.01,0.2-0.11,0.26-0.21c0.05-0.09,0.05-0.22,0.03-0.33c-0.03-0.21-0.08-0.42-0.13-0.63c-0.05-0.23,0.08-0.41,0.25-0.34
				c0.07,0.03,0.13,0.11,0.19,0.17c0.14,0.14,0.26,0.3,0.41,0.41c0.15,0.1,0.33,0.13,0.45-0.07c0.12-0.21,0-0.37-0.15-0.47
				c-0.17-0.1-0.35-0.18-0.54-0.22c-0.18-0.04-0.31-0.09-0.3-0.32c0.01-0.23,0.17-0.24,0.32-0.29c0.2-0.07,0.4-0.14,0.57-0.26
				c0.17-0.12,0.18-0.41,0.04-0.55c-0.15-0.14-0.31-0.11-0.45,0.04c-0.14,0.15-0.26,0.32-0.41,0.45c-0.08,0.07-0.21,0.08-0.32,0.11
				c-0.02-0.13-0.08-0.26-0.06-0.38C19.25,16.49,19.32,16.28,19.37,16.07z M23.57,15.03c0.84,0,1.63,0,2.43,0
				c0.03-0.37,0.05-0.7,0.08-1.07c-0.24-0.02-0.45-0.06-0.65-0.06c-0.53,0.01-1.05,0.03-1.58,0.07c-0.11,0.01-0.27-0.01-0.28,0.2
				C23.57,14.48,23.57,14.78,23.57,15.03z M27.81,14.48c-0.03,0.35-0.04,0.59-0.06,0.82c-0.02,0.21,0.04,0.31,0.22,0.4
				c0.41,0.2,0.81,0.43,1.21,0.67c0.2,0.12,0.37,0.3,0.58,0.48c0.05-0.24,0.08-0.44,0.14-0.62c0.05-0.17,0.01-0.26-0.11-0.36
				c-0.25-0.19-0.48-0.41-0.73-0.59C28.67,15.02,28.26,14.77,27.81,14.48z M15.99,21.48c0.22,0.04,0.41,0.07,0.51,0.09
				c0.17-0.31,0.32-0.56,0.46-0.82c0.03-0.05,0.06-0.09,0.08-0.14c0.14-0.47,0.27-0.95,0.4-1.43c-0.57-0.58-0.25-1.11,0.12-1.62
				c-0.1-0.1-0.17-0.18-0.27-0.28c-0.24,0.53-0.46,1.03-0.71,1.58c0.02,0.02,0.08,0.11,0.14,0.19c0.45,0.57,0.22,1.41-0.44,1.42
				c-0.05,0-0.13,0.07-0.14,0.12C16.08,20.88,16.04,21.18,15.99,21.48z M19.95,14.34c-0.52,0.13-0.79,0.3-0.99,0.65
				c0.36,0.05,0.36,0.05,0.79,0.64c0.18-0.18,0.37-0.37,0.53-0.53C20.16,14.83,20.06,14.59,19.95,14.34z"/>
			<path class="st0" d="M34.62,37.58c-0.06,0-0.12,0-0.17,0c-0.06,0-0.11,0-0.17,0l-0.12,0c-3.66,0-7.31,0-10.97-0.01
				c-0.02,0-0.05,0-0.07,0c-0.16,0.01-0.4,0.02-0.43-0.32c-0.01-0.1,0.02-0.18,0.08-0.25c0.09-0.1,0.24-0.15,0.43-0.15h0l1.44,0
				c1.56,0,3.17,0,4.76,0.01c0.09,0,0.15-0.01,0.18-0.04c0.03-0.03,0.05-0.1,0.05-0.22c-0.01-1.78,0.27-3.56,0.85-5.42
				c0.09-0.3,0.2-0.59,0.3-0.88c0.05-0.15,0.11-0.31,0.16-0.46c0.02-0.05,0.03-0.1,0.04-0.16c0-0.01,0-0.02,0.01-0.03
				c-0.11-0.05-0.21-0.09-0.32-0.14c-0.28-0.12-0.54-0.23-0.8-0.36c-0.8-0.37-1.6-0.91-2.53-1.68c-0.79-0.66-1.53-1.44-2.19-2.33
				c-1.4-1.88-2.39-4.01-2.93-6.33c-0.3-1.28-0.46-2.48-0.49-3.67c0-0.07-0.01-0.15-0.02-0.25c0-0.03-0.01-0.05-0.01-0.08
				l-1.38,1.03c0.29,0.03,0.61,0.12,0.72,0.53c0.16,0.54-0.11,0.93-0.36,1.19c0.01,0.02,0.02,0.03,0.03,0.05
				c0.04,0.07,0.09,0.13,0.13,0.19c0.28,0.4,0.33,0.82,0.12,1.18c-0.16,0.28-0.58,0.41-0.98,0.29c-0.03-0.01-0.06-0.02-0.09-0.03
				c-0.1,0.38-0.28,0.95-0.84,0.92c-0.51-0.02-0.69-0.49-0.79-0.93c-0.22,0.04-0.35,0.16-0.4,0.4c-0.02,0.07-0.04,0.13-0.07,0.2
				c-0.02,0.06-0.04,0.12-0.06,0.17c-0.01,0.05-0.03,0.1-0.04,0.15c-0.08,0.27-0.14,0.48,0.16,0.68c0.13,0.09,0.19,0.27,0.25,0.46
				c0.02,0.06,0.04,0.13,0.07,0.19c0.37-0.08,0.88-0.19,1.12,0.42c0.17,0.42,0.05,0.84-0.34,1.23c0.41,0.44,0.51,0.86,0.31,1.27
				c-0.25,0.52-0.71,0.47-1.11,0.35c-0.08,0.46-0.26,0.95-0.85,1.01c0,0,0,0.01,0,0.01c0,0.04-0.01,0.08-0.01,0.12
				c0,3.54,0,7.07,0,10.61c0,0.16,0,0.27,0.03,0.31c0.02,0.03,0.12,0.03,0.25,0.03c0.26,0,0.52,0,0.79,0c0.25,0,0.5,0,0.74,0
				c0.02,0,0.05,0,0.07,0c0.07-0.01,0.16-0.02,0.22,0.03c0.13,0.1,0.27,0.22,0.29,0.36c0.02,0.11-0.02,0.18-0.05,0.22
				c-0.06,0.07-0.17,0.11-0.29,0.11c-0.49,0-1.01,0.01-1.68,0.01c-1.39,0-2.97,0-4.52,0c-0.02,0-0.05,0-0.07,0
				c-0.17,0.01-0.41,0.01-0.45-0.33c-0.01-0.08,0.02-0.16,0.08-0.23c0.09-0.1,0.26-0.16,0.45-0.16h0c0.19,0,0.38,0,0.56,0
				c0.5,0,1.01,0,1.52,0.01c0.08,0,0.13-0.01,0.15-0.03c0.03-0.03,0.04-0.08,0.04-0.18c0-2.44,0-4.93-0.01-7.33
				c0-1.52,0-3.04,0-4.55c0-0.14-0.03-0.29-0.05-0.44l0-0.02c-0.08-0.42,0.04-0.79,0.33-1.11c-0.03-0.07-0.06-0.14-0.09-0.2
				c-0.09-0.2-0.18-0.39-0.25-0.59c-0.04-0.11-0.02-0.24,0-0.35c0-0.02,0.01-0.05,0.01-0.07c0.04-0.24,0.08-0.49,0.12-0.73
				c0-0.02,0.01-0.04,0.01-0.06c-0.21,0.2-0.42,0.29-0.61,0.25c-0.24-0.05-0.44-0.27-0.58-0.66c-0.03-0.08-0.05-0.16-0.07-0.24
				c0-0.01-0.01-0.03-0.01-0.04c-0.01,0-0.02,0.01-0.03,0.01c-0.07,0.02-0.14,0.04-0.21,0.05c-0.25,0.03-0.62,0.03-0.83-0.34
				c-0.2-0.36-0.18-0.75,0.06-1.06c0.2-0.25,0.23-0.39,0.01-0.65c-0.25-0.29-0.28-0.68-0.09-1.03c0.22-0.42,0.62-0.41,0.89-0.37
				c0.06,0.01,0.12,0.03,0.18,0.05c0.01,0,0.01,0,0.02,0.01c0.03-0.07,0.05-0.14,0.08-0.21c0.13-0.38,0.29-0.81,0.81-0.76
				c0.45,0.04,0.58,0.44,0.7,0.79c0.02,0.05,0.03,0.1,0.05,0.15h0.95l0.31-0.7c0.01-0.02,0.02-0.05,0.03-0.08
				c0.02-0.07,0.05-0.14,0.1-0.19c0.49-0.59,0.99-1.16,1.45-1.7c0.06-0.07,0.12-0.13,0.18-0.19c0.02-0.02,0.03-0.03,0.05-0.05
				c-0.26-0.67-0.24-0.8,0.24-1.52c-0.32-0.37-0.57-0.79-0.31-1.3c0.27-0.54,0.78-0.44,1.1-0.35c0.02-0.06,0.04-0.12,0.07-0.18
				c0.14-0.38,0.29-0.81,0.79-0.78c0.5,0.03,0.64,0.49,0.76,0.9c0.01,0.02,0.01,0.05,0.02,0.07c0.38-0.08,0.65-0.1,0.84,0.03
				c0.2,0.13,0.29,0.41,0.37,0.82c0.08-0.01,0.15-0.03,0.23-0.05c0.21-0.04,0.44-0.09,0.65-0.12c1.88-0.3,3.69,0.01,5.39,0.94
				c0.55,0.3,1.1,0.69,1.62,1.15c1.15,1.02,2.05,2.25,2.7,3.66c0.71,1.55,1.08,3.02,1.13,4.47c0.05,1.5,0.05,3.02,0.05,4.49l0,0.66
				c0.01,2.75,0.01,5.76,0,9.48c0,0.11,0.01,0.18,0.05,0.21c0.02,0.02,0.07,0.03,0.14,0.02l0.02,0c0.08-0.01,0.18-0.03,0.25,0.03
				c0.08,0.06,0.14,0.15,0.2,0.23c0.02,0.03,0.05,0.06,0.07,0.09l0.04,0.05l-0.05,0.05c-0.02,0.02-0.05,0.05-0.07,0.08
				c-0.07,0.08-0.13,0.16-0.22,0.18C34.85,37.57,34.73,37.58,34.62,37.58z M23.18,37.42L23.18,37.42c3.66,0,7.32,0.01,10.97,0.01
				l0.12,0c0.06,0,0.11,0,0.17,0c0.16,0,0.33,0.01,0.49-0.02c0.04-0.01,0.09-0.07,0.14-0.13c0.01-0.02,0.03-0.03,0.04-0.05
				c-0.01-0.02-0.02-0.03-0.03-0.05c-0.06-0.08-0.11-0.15-0.17-0.2c-0.02-0.02-0.1,0-0.14,0l-0.03,0c-0.11,0.02-0.2,0-0.25-0.05
				c-0.08-0.07-0.1-0.2-0.1-0.32c0.01-3.71,0.01-6.72,0-9.48l0-0.66c0-1.47-0.01-2.99-0.05-4.49c-0.05-1.44-0.41-2.88-1.12-4.42
				c-0.64-1.39-1.54-2.61-2.67-3.62c-0.51-0.46-1.05-0.84-1.59-1.14c-1.67-0.92-3.45-1.23-5.3-0.93c-0.22,0.04-0.44,0.08-0.65,0.12
				c-0.1,0.02-0.2,0.04-0.3,0.06l-0.07,0.01l-0.01-0.07c-0.09-0.49-0.18-0.7-0.32-0.8c-0.14-0.09-0.36-0.09-0.8,0l-0.06,0.01
				l-0.02-0.06c-0.01-0.05-0.03-0.09-0.04-0.14c-0.12-0.4-0.23-0.77-0.63-0.79c-0.39-0.02-0.52,0.32-0.65,0.69
				c-0.03,0.08-0.06,0.17-0.09,0.25L20,11.24l-0.06-0.02c-0.38-0.11-0.77-0.18-0.99,0.26c-0.24,0.48,0.04,0.86,0.32,1.18l0.04,0.04
				l-0.03,0.05c-0.5,0.74-0.5,0.79-0.24,1.47l0.02,0.04l-0.03,0.03c-0.03,0.03-0.06,0.05-0.08,0.08c-0.06,0.06-0.12,0.11-0.17,0.18
				c-0.46,0.54-0.96,1.12-1.45,1.7c-0.03,0.04-0.05,0.09-0.07,0.15c-0.01,0.03-0.02,0.06-0.03,0.08l-0.34,0.78h-1.14l-0.02-0.05
				c-0.02-0.06-0.05-0.13-0.07-0.2c-0.11-0.34-0.22-0.66-0.57-0.7c-0.42-0.04-0.53,0.28-0.67,0.66c-0.03,0.09-0.07,0.19-0.1,0.27
				l-0.03,0.06l-0.06-0.02c-0.03-0.01-0.06-0.02-0.08-0.03c-0.05-0.02-0.1-0.03-0.15-0.04c-0.38-0.05-0.6,0.04-0.75,0.3
				c-0.16,0.29-0.13,0.63,0.08,0.87c0.29,0.33,0.22,0.55-0.01,0.83c-0.2,0.25-0.22,0.59-0.05,0.9c0.13,0.24,0.34,0.32,0.69,0.27
				c0.06-0.01,0.12-0.03,0.19-0.05c0.03-0.01,0.07-0.02,0.1-0.03l0.07-0.02l0.02,0.07c0.01,0.04,0.02,0.08,0.03,0.11
				c0.02,0.08,0.04,0.16,0.07,0.23c0.12,0.34,0.29,0.54,0.47,0.57c0.17,0.03,0.38-0.08,0.59-0.32c0.01-0.01,0.03-0.03,0.04-0.04l0,0
				l0.02-0.03c0.04-0.04,0.08-0.03,0.09-0.02l0,0l0.06,0.03l-0.05,0.09c-0.01,0.09-0.03,0.18-0.04,0.26
				c-0.04,0.24-0.08,0.48-0.11,0.73c0,0.02-0.01,0.05-0.01,0.07c-0.02,0.1-0.03,0.21-0.01,0.28c0.07,0.2,0.15,0.38,0.24,0.58
				c0.04,0.08,0.07,0.16,0.11,0.25l0.02,0.04l-0.03,0.03c-0.29,0.3-0.4,0.64-0.33,1.02l0,0.02c0.03,0.15,0.06,0.31,0.06,0.47
				c0,1.52,0,3.04,0,4.55c0,2.4,0,4.89,0.01,7.33c0,0.14-0.02,0.22-0.08,0.28C15.41,36.99,15.31,37,15.22,37
				c-0.51-0.01-1.02-0.01-1.52-0.01c-0.19,0-0.38,0-0.56,0h0c-0.15,0-0.28,0.04-0.34,0.12c-0.03,0.04-0.05,0.07-0.04,0.12
				c0.02,0.2,0.12,0.21,0.3,0.2c0.03,0,0.05,0,0.08,0c1.54,0,3.12,0,4.52,0c0.68,0,1.19,0,1.68-0.01c0.08,0,0.15-0.02,0.18-0.06
				c0.02-0.02,0.03-0.06,0.02-0.1c-0.02-0.11-0.18-0.22-0.24-0.27c-0.02-0.01-0.07-0.01-0.12,0c-0.03,0-0.06,0.01-0.08,0.01
				c-0.25,0-0.5,0-0.74,0c-0.26,0-0.52,0-0.79,0c-0.19,0-0.29,0-0.36-0.08c-0.06-0.07-0.06-0.18-0.06-0.4c0-3.54,0-7.07,0-10.61
				c0-0.05,0-0.09,0.01-0.14c0-0.02,0-0.04,0.01-0.07l0-0.06l0.06,0c0.46-0.02,0.69-0.3,0.79-0.97l0.01-0.09l0.08,0.03
				c0.4,0.14,0.8,0.2,1.01-0.25c0.18-0.38,0.08-0.75-0.33-1.16l-0.05-0.05l0.05-0.05c0.39-0.36,0.51-0.74,0.36-1.12
				c-0.19-0.49-0.58-0.41-0.96-0.33l-0.11,0.02l-0.02-0.05c-0.04-0.08-0.07-0.17-0.09-0.26c-0.06-0.17-0.11-0.33-0.19-0.39
				c-0.39-0.26-0.3-0.57-0.22-0.84c0.01-0.05,0.03-0.1,0.04-0.15c0.02-0.07,0.04-0.13,0.06-0.19c0.02-0.06,0.05-0.12,0.06-0.18
				c0.08-0.33,0.27-0.5,0.59-0.52l0.06,0l0.01,0.06c0.09,0.42,0.24,0.86,0.67,0.88c0.45,0.02,0.6-0.41,0.72-0.89l0.02-0.07
				l0.13,0.04c0.04,0.01,0.07,0.02,0.1,0.03c0.32,0.1,0.68,0,0.81-0.23c0.18-0.31,0.14-0.67-0.11-1.02
				c-0.05-0.06-0.09-0.13-0.13-0.2c-0.02-0.03-0.04-0.06-0.06-0.1l-0.03-0.05l0.04-0.04c0.36-0.37,0.48-0.7,0.36-1.09
				c-0.08-0.29-0.28-0.41-0.68-0.43l-0.05,0l-0.05-0.17l1.69-1.26l0.01,0.12c0.01,0.08,0.02,0.15,0.02,0.2
				c0.01,0.11,0.02,0.18,0.03,0.26c0.03,1.17,0.18,2.36,0.48,3.64c0.54,2.3,1.52,4.41,2.91,6.28c0.66,0.88,1.38,1.66,2.17,2.31
				c0.92,0.77,1.72,1.29,2.5,1.66c0.26,0.12,0.52,0.24,0.8,0.36c0.12,0.05,0.25,0.11,0.37,0.16l0.06,0.02l-0.02,0.06
				c-0.01,0.03-0.02,0.06-0.02,0.09c-0.01,0.06-0.03,0.12-0.05,0.17c-0.05,0.16-0.11,0.31-0.16,0.47c-0.1,0.29-0.21,0.58-0.3,0.88
				c-0.58,1.85-0.85,3.61-0.84,5.37c0,0.16-0.03,0.26-0.09,0.32C29.6,36.99,29.49,37,29.39,37c-1.59-0.01-3.2-0.01-4.76-0.01
				l-1.44,0h0c-0.14,0-0.26,0.04-0.32,0.11c-0.03,0.04-0.05,0.09-0.04,0.14c0.02,0.19,0.11,0.19,0.28,0.19
				C23.13,37.42,23.16,37.42,23.18,37.42z M15.6,20.95 M16.52,37c-0.02,0-0.04,0-0.06,0c-0.11-0.01-0.2-0.01-0.27-0.01
				c-0.14,0-0.23,0-0.29-0.06c-0.07-0.07-0.06-0.17-0.06-0.41c0-0.07,0-0.14,0-0.23c0-1.64,0-2.97,0-4.18c0-0.68,0-1.36,0.01-2.05
				c0-0.77,0-1.54,0.01-2.31c0-0.58,0-1.15,0-1.73c0-0.33,0-0.66,0-0.99c0-0.05,0-0.1,0.01-0.16c0-0.02,0-0.05,0-0.07l0-0.06
				l0.81-0.12l0.01,0.07c0.02,0.11,0.04,0.22,0.06,0.34c0.05,0.25,0.1,0.51,0.1,0.77c0.01,1.97,0.01,3.96,0.01,5.9
				c0,1.59,0,3.23,0.01,4.85c0,0.14-0.01,0.28-0.1,0.36C16.7,36.98,16.63,37,16.52,37z M16,24.88c0,0.01,0,0.01,0,0.02
				c0,0.05-0.01,0.1-0.01,0.15c0,0.33,0,0.66,0,0.99c0,0.58,0,1.15,0,1.73c0,0.77,0,1.54-0.01,2.31c0,0.68,0,1.36-0.01,2.05
				c0,1.21,0,2.54,0,4.18c0,0.09,0,0.17,0,0.23c0,0.16,0,0.28,0.02,0.31c0.02,0.02,0.09,0.02,0.19,0.02c0.07,0,0.16,0,0.28,0.01
				c0.1,0.01,0.16,0,0.19-0.03c0.04-0.04,0.05-0.11,0.05-0.26c0-1.62,0-3.26-0.01-4.85c0-1.93,0-3.93-0.01-5.9
				c0-0.25-0.05-0.5-0.1-0.75c-0.02-0.09-0.04-0.18-0.05-0.27L16,24.88z M30.38,37c-0.12,0-0.2-0.03-0.26-0.08
				c-0.08-0.08-0.09-0.21-0.09-0.33c0.04-1.61,0.21-2.91,0.53-4.09c0.19-0.68,0.41-1.36,0.63-2.02c0.09-0.26,0.17-0.51,0.25-0.77
				c0.02-0.07,0.07-0.16,0.15-0.21c0.26-0.16,0.52-0.31,0.8-0.47c0.1-0.06,0.19-0.11,0.3-0.17l0.11-0.06l0,4.01
				c0,1.25,0,2.54,0,3.81c0,0.14-0.01,0.24-0.08,0.31C32.67,36.98,32.59,37,32.48,37c-0.71-0.01-1.41-0.01-2.08,0
				C30.39,37,30.39,37,30.38,37z M32.66,29.04c-0.06,0.04-0.13,0.07-0.19,0.11c-0.28,0.16-0.54,0.31-0.8,0.47
				c-0.03,0.02-0.07,0.08-0.09,0.13c-0.08,0.26-0.17,0.51-0.25,0.77c-0.22,0.66-0.44,1.33-0.63,2.01c-0.32,1.16-0.48,2.45-0.53,4.05
				c0,0.12,0.01,0.19,0.04,0.23c0.03,0.03,0.08,0.04,0.17,0.04c0.67-0.01,1.37-0.01,2.09,0c0.08,0,0.12-0.01,0.15-0.03
				c0.03-0.03,0.04-0.09,0.04-0.21c-0.01-1.27-0.01-2.56,0-3.81L32.66,29.04z M33.74,36.99c-0.03,0-0.05,0-0.08,0
				c-0.06,0-0.12,0-0.17,0c-0.18,0-0.27,0-0.34-0.06c-0.06-0.06-0.06-0.16-0.06-0.34c0-0.06,0-0.12,0-0.2c0-0.87,0-1.74,0-2.61
				c0-1.56,0-3.16-0.01-4.74c0-0.33,0.11-0.54,0.37-0.68c0.1-0.05,0.2-0.11,0.32-0.18c0.06-0.03,0.12-0.07,0.18-0.1l0.1-0.06
				l0.01,0.11c0,0.05,0.01,0.1,0.01,0.14c0.01,0.08,0.01,0.15,0.01,0.22c0,2.68,0,5.36,0,8.03c0,0.22,0,0.33-0.07,0.4
				C33.96,36.99,33.88,36.99,33.74,36.99z M33.59,36.85c0.02,0,0.05,0,0.07,0c0.13,0,0.24,0,0.26-0.02c0.03-0.03,0.03-0.14,0.03-0.3
				c0-2.68,0-5.36,0-8.03c0-0.06,0-0.13-0.01-0.21c0-0.01,0-0.02,0-0.03c-0.03,0.02-0.06,0.03-0.08,0.05
				c-0.12,0.07-0.22,0.12-0.32,0.18c-0.21,0.11-0.3,0.27-0.3,0.55c0.01,1.58,0.01,3.19,0.01,4.75c0,0.87,0,1.74,0,2.61
				c0,0.08,0,0.15,0,0.21c0,0.12,0,0.22,0.01,0.24c0.02,0.02,0.12,0.02,0.23,0.02C33.52,36.85,33.55,36.85,33.59,36.85z M31.3,29.18
				c-0.1,0-0.21-0.02-0.34-0.07c-0.99-0.4-1.96-0.95-2.89-1.65c-0.87-0.65-1.67-1.44-2.39-2.34c-1.69-2.13-2.78-4.61-3.26-7.37
				c-0.11-0.66-0.16-1.34-0.21-2c-0.02-0.32-0.05-0.65-0.08-0.98c-0.02-0.23,0.06-0.36,0.26-0.42c0.15-0.04,0.29-0.09,0.45-0.15
				c0.07-0.03,0.15-0.05,0.22-0.08l0.09-0.03v0.1c0,0.13,0,0.25,0,0.37c0,0.27,0,0.52,0,0.77c0,0.16,0.03,0.25,0.07,0.29
				c0.04,0.03,0.11,0.04,0.23,0.01c0.94-0.2,1.81-0.22,2.64-0.06c0.06,0.01,0.11,0,0.15-0.02c0.05-0.04,0.08-0.12,0.09-0.24
				c0.02-0.35,0.04-0.65,0.06-0.96c0-0.1,0.02-0.19,0.09-0.25c0.07-0.05,0.17-0.04,0.23-0.02l0.02,0.01
				c0.62,0.15,0.64,0.19,0.63,0.89c0,0.19-0.02,0.4-0.04,0.65c-0.02,0.17,0.03,0.26,0.17,0.31c0.78,0.29,1.46,0.81,2.15,1.36
				c0.05,0.04,0.2,0.16,0.26,0.13c0.07-0.03,0.13-0.24,0.14-0.31c0.04-0.15,0.07-0.29,0.11-0.44l0.09-0.36l0.11,0.06
				c0.02,0.01,0.03,0.02,0.04,0.02c0.62,0.48,0.55,1.17,0.49,1.84l-0.01,0.05c-0.12,1.21-0.06,2.53,0.17,4.04
				c0.27,1.8,0.83,3.57,1.65,5.25c0.19,0.39,0.12,0.68-0.23,0.91c-0.1,0.07-0.2,0.13-0.3,0.2c-0.16,0.1-0.32,0.2-0.47,0.31
				C31.58,29.13,31.45,29.18,31.3,29.18z M23.04,14.29c-0.04,0.02-0.09,0.03-0.13,0.04c-0.16,0.06-0.31,0.11-0.46,0.15
				c-0.12,0.03-0.18,0.09-0.16,0.27c0.03,0.33,0.05,0.66,0.08,0.98c0.05,0.66,0.09,1.34,0.21,1.99c0.47,2.73,1.56,5.19,3.23,7.31
				c0.7,0.89,1.5,1.67,2.36,2.31c0.92,0.69,1.88,1.24,2.86,1.63c0.25,0.1,0.42,0.08,0.61-0.06c0.16-0.12,0.32-0.22,0.48-0.32
				c0.1-0.06,0.2-0.13,0.3-0.19c0.29-0.19,0.34-0.41,0.18-0.73c-0.83-1.69-1.39-3.47-1.66-5.29c-0.23-1.52-0.28-2.85-0.17-4.07
				l0.01-0.05c0.06-0.65,0.12-1.26-0.4-1.69l-0.04,0.16c-0.04,0.15-0.07,0.29-0.11,0.44c-0.05,0.21-0.11,0.37-0.24,0.41
				c-0.13,0.04-0.27-0.05-0.4-0.16c-0.7-0.56-1.35-1.05-2.11-1.33c-0.2-0.07-0.28-0.22-0.26-0.46c0.02-0.25,0.04-0.46,0.04-0.64
				c0.01-0.31,0.01-0.48-0.05-0.57c-0.06-0.08-0.2-0.11-0.47-0.18l-0.02-0.01c-0.08-0.02-0.1-0.01-0.11,0
				c-0.01,0.01-0.03,0.04-0.03,0.14c-0.01,0.31-0.03,0.6-0.06,0.96c-0.01,0.16-0.06,0.27-0.14,0.34c-0.07,0.05-0.16,0.07-0.26,0.05
				c-0.82-0.15-1.66-0.14-2.59,0.06c-0.1,0.02-0.24,0.04-0.35-0.04c-0.09-0.07-0.12-0.19-0.13-0.4c0-0.25,0-0.51,0-0.77
				C23.04,14.47,23.04,14.38,23.04,14.29z M33.1,28.17l0-0.48c0-0.48,0-0.96,0-1.44c0-1.1,0-2.24-0.01-3.37
				c-0.01-1.2-0.23-2.4-0.66-3.57c-0.48-1.3-1.17-2.45-2.06-3.39c-0.58-0.62-1.26-1.14-2.08-1.6c-1.12-0.63-2.34-0.92-3.64-0.85
				c-0.4,0.02-0.81,0.1-1.2,0.18c-0.18,0.04-0.36,0.07-0.55,0.11c-0.04,0.01-0.09,0.02-0.11,0.02l-0.07,0.01l-0.54-1.19l0.09-0.02
				c0.05-0.01,0.09-0.02,0.14-0.03c0.11-0.02,0.23-0.05,0.34-0.08c1.76-0.51,3.49-0.43,5.12,0.24c0.69,0.28,1.4,0.69,2.12,1.22
				c0.77,0.57,1.48,1.32,2.09,2.25c1.15,1.73,1.79,3.57,1.91,5.48c0.07,1.08,0.07,2.18,0.07,3.24c0,0.46,0,0.93,0.01,1.4
				c0,0.34,0.01,0.69,0,1.05c0,0.08-0.03,0.26-0.13,0.32c-0.16,0.11-0.34,0.21-0.52,0.32c-0.07,0.04-0.15,0.09-0.23,0.13L33.1,28.17
				z M25.01,13.31c1.19,0,2.31,0.29,3.35,0.88c0.83,0.47,1.52,1,2.11,1.63c0.91,0.96,1.61,2.12,2.09,3.44
				c0.43,1.19,0.66,2.41,0.67,3.62c0.01,1.12,0.01,2.26,0.01,3.37c0,0.48,0,0.96,0,1.44l0,0.23c0.04-0.02,0.08-0.05,0.12-0.07
				c0.19-0.11,0.35-0.2,0.51-0.31c0.03-0.02,0.06-0.12,0.06-0.21c0.01-0.35,0.01-0.71,0-1.04c-0.01-0.47-0.01-0.94-0.01-1.4
				c0-1.06,0-2.16-0.07-3.23c-0.12-1.88-0.75-3.7-1.89-5.41c-0.6-0.91-1.29-1.65-2.06-2.21c-0.71-0.52-1.42-0.93-2.09-1.2
				c-1.61-0.66-3.3-0.73-5.03-0.23c-0.12,0.03-0.24,0.06-0.35,0.09c-0.02,0-0.04,0.01-0.06,0.01l0.42,0.92
				c0.02,0,0.05-0.01,0.07-0.01c0.18-0.03,0.36-0.07,0.54-0.11c0.4-0.08,0.81-0.17,1.22-0.19C24.77,13.32,24.89,13.31,25.01,13.31z
				 M32.77,26.99l-0.14-0.32c-1.21-2.81-1.66-5.77-1.34-8.81l0.02-0.23l0.11,0.2c0.04,0.08,0.09,0.16,0.14,0.24
				c0.1,0.18,0.2,0.36,0.29,0.55c0.58,1.32,0.88,2.53,0.91,3.7c0.03,0.99,0.02,2.01,0.01,2.99c0,0.44-0.01,0.88-0.01,1.32V26.99z
				 M31.41,18.11c-0.27,2.81,0.14,5.56,1.21,8.18c0-0.32,0-0.65,0-0.97c0.01-0.98,0.01-2-0.01-2.99c-0.03-1.15-0.32-2.34-0.9-3.64
				c-0.08-0.18-0.18-0.36-0.28-0.54C31.43,18.14,31.42,18.13,31.41,18.11z M17.34,25.27c-0.01,0-0.02,0-0.03,0
				c-0.3-0.02-0.32-0.34-0.33-0.45l-0.02-0.23l0-0.01c0.01-0.03,0.02-0.07,0.03-0.12c0.03-0.12,0.06-0.27,0.1-0.41
				c0.06-0.17,0.03-0.29-0.08-0.36c-0.05-0.03-0.07-0.03-0.15,0.09c-0.02,0.02-0.03,0.04-0.05,0.06c-0.11,0.13-0.23,0.28-0.36,0.4
				c-0.14,0.12-0.29,0.17-0.43,0.15c-0.1-0.02-0.19-0.08-0.24-0.18c-0.05-0.09-0.05-0.22-0.01-0.35c0.05-0.15,0.16-0.28,0.28-0.35
				c0.08-0.04,0.17-0.07,0.26-0.09c0.09-0.02,0.17-0.05,0.24-0.08c0.06-0.03,0.1-0.09,0.16-0.15c0.01-0.01,0.02-0.03,0.04-0.04
				c-0.01-0.01-0.02-0.03-0.04-0.04c-0.05-0.06-0.1-0.12-0.16-0.15c-0.08-0.04-0.16-0.07-0.25-0.1c-0.1-0.03-0.21-0.07-0.31-0.12
				c-0.25-0.14-0.31-0.46-0.21-0.64c0.05-0.09,0.14-0.15,0.25-0.17c0.13-0.02,0.27,0.02,0.38,0.11c0.14,0.12,0.27,0.26,0.37,0.41
				l0.01,0.01c0.11,0.18,0.16,0.22,0.26,0.16c0.11-0.06,0.09-0.16,0.06-0.33l-0.01-0.04c-0.06-0.31-0.09-0.55-0.1-0.78
				c-0.01-0.14,0.04-0.28,0.13-0.35c0.06-0.05,0.13-0.07,0.22-0.06c0.14,0.03,0.29,0.22,0.32,0.36c0.03,0.17,0.01,0.35-0.01,0.52
				c0,0.04-0.01,0.07-0.01,0.11c-0.01,0.05-0.02,0.1-0.04,0.15c-0.02,0.05-0.04,0.09-0.03,0.13c0.01,0.08,0.04,0.15,0.07,0.23
				c0.01,0.01,0.01,0.03,0.02,0.04c0.01,0,0.02-0.01,0.03-0.01c0.07-0.03,0.14-0.05,0.19-0.1c0.06-0.06,0.12-0.13,0.17-0.2
				c0.06-0.08,0.13-0.17,0.21-0.24c0.11-0.1,0.26-0.14,0.39-0.12c0.1,0.02,0.19,0.07,0.24,0.16c0.05,0.09,0.06,0.22,0.03,0.34
				c-0.04,0.15-0.14,0.28-0.26,0.35c-0.09,0.05-0.18,0.08-0.27,0.1c-0.08,0.02-0.16,0.05-0.23,0.08c-0.13,0.07-0.22,0.15-0.23,0.21
				c-0.02,0.11,0.03,0.15,0.22,0.2c0.03,0.01,0.05,0.01,0.08,0.02c0.22,0.05,0.48,0.1,0.61,0.39c0.05,0.11,0.1,0.35,0.02,0.45
				c-0.09,0.11-0.32,0.19-0.43,0.12c-0.17-0.1-0.32-0.24-0.46-0.38c-0.03-0.03-0.06-0.06-0.09-0.08c-0.03-0.03-0.05-0.06-0.08-0.1
				c-0.08-0.11-0.1-0.11-0.15-0.08c-0.1,0.07-0.12,0.18-0.07,0.4c0.06,0.28,0.1,0.52,0.1,0.75c0,0.15-0.04,0.27-0.12,0.34
				C17.5,25.24,17.42,25.27,17.34,25.27z M17.11,24.6l0.01,0.21c0.02,0.27,0.11,0.31,0.2,0.31c0.06,0,0.1-0.01,0.13-0.04
				c0.05-0.05,0.08-0.13,0.07-0.24c-0.01-0.22-0.04-0.46-0.1-0.72c-0.03-0.13-0.09-0.4,0.13-0.55c0.18-0.12,0.29,0.03,0.34,0.11
				c0.02,0.03,0.04,0.06,0.06,0.08c0.03,0.03,0.06,0.06,0.09,0.08c0.14,0.13,0.28,0.27,0.43,0.36c0.04,0.03,0.2-0.02,0.25-0.09
				c0.02-0.03,0.01-0.19-0.04-0.3c-0.1-0.22-0.3-0.26-0.51-0.31c-0.03-0.01-0.06-0.01-0.08-0.02c-0.12-0.03-0.38-0.09-0.33-0.36
				c0.03-0.14,0.21-0.25,0.31-0.31c0.08-0.04,0.17-0.07,0.25-0.09c0.09-0.03,0.17-0.05,0.24-0.09c0.09-0.05,0.16-0.15,0.19-0.26
				c0.02-0.09,0.02-0.18-0.02-0.23c-0.03-0.05-0.08-0.08-0.14-0.09c-0.09-0.02-0.19,0.02-0.27,0.09c-0.07,0.06-0.13,0.14-0.19,0.22
				c-0.06,0.07-0.12,0.15-0.19,0.22c-0.07,0.06-0.15,0.1-0.23,0.13c-0.03,0.01-0.06,0.03-0.1,0.04l-0.07,0.04l-0.03-0.08
				c-0.01-0.04-0.03-0.07-0.04-0.1c-0.03-0.09-0.07-0.18-0.08-0.27c-0.01-0.07,0.02-0.13,0.04-0.19c0.02-0.04,0.03-0.08,0.03-0.11
				c0-0.04,0.01-0.07,0.01-0.11c0.02-0.16,0.04-0.33,0.01-0.47c-0.02-0.1-0.14-0.23-0.2-0.25c-0.04-0.01-0.07,0-0.1,0.02
				c-0.05,0.04-0.08,0.14-0.08,0.24c0.01,0.22,0.04,0.46,0.1,0.76l0.01,0.04c0.03,0.16,0.08,0.36-0.13,0.48
				c-0.23,0.13-0.36-0.07-0.45-0.21l-0.01-0.01c-0.09-0.14-0.2-0.27-0.34-0.38c-0.08-0.07-0.17-0.09-0.26-0.08
				c-0.07,0.01-0.12,0.05-0.15,0.1c-0.07,0.12-0.02,0.35,0.15,0.45c0.09,0.05,0.18,0.08,0.28,0.11c0.09,0.03,0.19,0.06,0.28,0.11
				c0.08,0.04,0.14,0.12,0.2,0.19c0.02,0.03,0.05,0.06,0.07,0.08l0.05,0.05L16.9,23.2c-0.02,0.03-0.05,0.06-0.07,0.08
				c-0.06,0.07-0.12,0.15-0.2,0.19c-0.09,0.04-0.18,0.07-0.27,0.09c-0.08,0.02-0.16,0.04-0.23,0.08c-0.09,0.05-0.17,0.15-0.21,0.26
				c-0.03,0.09-0.03,0.18,0,0.24c0.03,0.06,0.08,0.09,0.14,0.1c0.09,0.02,0.2-0.03,0.3-0.12c0.13-0.11,0.24-0.25,0.35-0.39
				c0.01-0.02,0.03-0.04,0.04-0.06c0.06-0.09,0.17-0.25,0.35-0.13c0.16,0.11,0.21,0.29,0.13,0.53c-0.04,0.14-0.08,0.28-0.1,0.4
				C17.12,24.53,17.12,24.56,17.11,24.6z M16.53,21.65l-0.63-0.11l0.01-0.07c0.01-0.08,0.03-0.15,0.04-0.23
				c0.04-0.23,0.07-0.44,0.12-0.66c0.02-0.08,0.12-0.17,0.21-0.17c0.24,0,0.42-0.13,0.53-0.34c0.14-0.29,0.08-0.68-0.14-0.96
				c-0.05-0.07-0.1-0.13-0.13-0.17l-0.04-0.06l0.77-1.72l0.39,0.4l-0.04,0.05c-0.38,0.52-0.66,1-0.13,1.53l0.03,0.03l-0.1,0.36
				c-0.1,0.37-0.21,0.74-0.31,1.11c-0.01,0.04-0.04,0.08-0.06,0.11c-0.01,0.01-0.02,0.03-0.03,0.04L16.53,21.65z M16.07,21.42
				l0.39,0.07l0.44-0.77c0.01-0.02,0.02-0.03,0.03-0.05c0.02-0.03,0.03-0.05,0.04-0.07c0.11-0.37,0.21-0.74,0.31-1.11l0.08-0.28
				c-0.59-0.63-0.19-1.23,0.11-1.64l-0.16-0.16l-0.65,1.45c0.03,0.04,0.07,0.1,0.12,0.16c0.26,0.33,0.32,0.77,0.16,1.11
				c-0.13,0.26-0.36,0.42-0.65,0.42c-0.02,0-0.06,0.04-0.07,0.06c-0.05,0.21-0.08,0.43-0.12,0.66
				C16.09,21.32,16.08,21.37,16.07,21.42z M15.01,20.91c-0.07,0-0.14-0.03-0.19-0.08c-0.11-0.11-0.17-0.31-0.17-0.57l0-0.01l0-0.01
				c0.01-0.03,0.02-0.07,0.03-0.12c0.03-0.13,0.08-0.29,0.1-0.46c0.01-0.1-0.02-0.24-0.04-0.26c-0.03-0.02-0.15,0.01-0.22,0.07
				c-0.07,0.05-0.13,0.12-0.19,0.2c-0.05,0.06-0.11,0.13-0.17,0.19c-0.04,0.04-0.17,0.15-0.32,0.15c-0.12,0-0.31-0.06-0.35-0.18
				c-0.04-0.11-0.03-0.37,0.07-0.45c0.17-0.13,0.38-0.24,0.62-0.32c0.02-0.01,0.04-0.01,0.06-0.02c0.15-0.04,0.22-0.07,0.22-0.22
				c0-0.16-0.07-0.18-0.22-0.23c-0.02-0.01-0.05-0.01-0.07-0.02c-0.23-0.07-0.43-0.17-0.59-0.29c-0.09-0.07-0.15-0.16-0.16-0.26
				c-0.01-0.11,0.02-0.22,0.11-0.33c0.07-0.09,0.16-0.14,0.24-0.15c0.09-0.01,0.18,0.04,0.27,0.13c0.05,0.05,0.11,0.11,0.16,0.17
				c0.09,0.1,0.18,0.2,0.28,0.28c0.05,0.04,0.13,0.06,0.2,0.08c0.01,0,0.03,0.01,0.04,0.01c0-0.01,0.01-0.03,0.01-0.04
				c0.02-0.08,0.04-0.16,0.03-0.24c-0.01-0.12-0.03-0.24-0.05-0.36c-0.02-0.14-0.04-0.28-0.05-0.42c-0.01-0.14,0.04-0.27,0.12-0.35
				c0.06-0.06,0.14-0.08,0.22-0.06c0.13,0.02,0.3,0.2,0.33,0.35c0.03,0.16,0.01,0.33-0.02,0.49c-0.01,0.05-0.01,0.09-0.02,0.14
				c-0.01,0.05-0.02,0.09-0.04,0.13c-0.01,0.04-0.03,0.07-0.03,0.1c0.02,0.22,0.04,0.27,0.06,0.28c0.02,0.01,0.14-0.01,0.21-0.08
				c0.07-0.06,0.14-0.14,0.2-0.21c0.09-0.1,0.18-0.2,0.28-0.28c0.12-0.08,0.34-0.09,0.46,0c0.09,0.07,0.15,0.18,0.15,0.3
				c0,0.11-0.04,0.21-0.13,0.27c-0.17,0.14-0.39,0.25-0.67,0.34l-0.04,0.01c-0.15,0.05-0.21,0.07-0.21,0.21
				c0,0.16,0.08,0.19,0.25,0.24l0.02,0.01c0.23,0.07,0.42,0.15,0.57,0.25c0.16,0.1,0.26,0.3,0.14,0.53
				c-0.07,0.13-0.16,0.17-0.22,0.19c-0.09,0.02-0.19,0-0.28-0.06c-0.17-0.11-0.31-0.27-0.45-0.41l-0.04-0.04
				c-0.01-0.02-0.03-0.03-0.04-0.05c-0.11-0.12-0.14-0.14-0.22-0.08c-0.1,0.07-0.08,0.16-0.04,0.31l0.02,0.09
				c0.04,0.17,0.09,0.35,0.11,0.53c0.02,0.18-0.03,0.36-0.14,0.48c-0.06,0.07-0.14,0.12-0.22,0.12
				C15.02,20.91,15.02,20.91,15.01,20.91z M14.79,20.27c0,0.21,0.05,0.38,0.13,0.45c0.03,0.03,0.06,0.04,0.1,0.04
				c0.04,0,0.08-0.03,0.12-0.07c0.08-0.09,0.12-0.23,0.1-0.37c-0.02-0.17-0.06-0.35-0.11-0.51l-0.02-0.09
				c-0.04-0.15-0.09-0.33,0.1-0.46c0.19-0.14,0.33,0.01,0.41,0.11c0.01,0.01,0.03,0.03,0.04,0.04l0.04,0.04
				c0.13,0.14,0.27,0.29,0.43,0.39c0.05,0.04,0.11,0.05,0.16,0.04c0.05-0.01,0.1-0.05,0.13-0.12c0.08-0.16,0.01-0.28-0.09-0.34
				c-0.14-0.09-0.32-0.17-0.53-0.23l-0.02-0.01c-0.16-0.05-0.36-0.1-0.36-0.38c0-0.25,0.17-0.3,0.31-0.35l0.04-0.01
				c0.26-0.09,0.46-0.19,0.62-0.32c0.05-0.04,0.07-0.09,0.07-0.16c0-0.07-0.04-0.15-0.1-0.19c-0.06-0.05-0.22-0.05-0.29,0
				c-0.09,0.07-0.17,0.16-0.26,0.26c-0.07,0.08-0.14,0.16-0.22,0.23c-0.09,0.08-0.28,0.16-0.39,0.09c-0.09-0.06-0.11-0.23-0.12-0.39
				c0-0.06,0.02-0.11,0.03-0.16c0.01-0.03,0.02-0.06,0.03-0.09c0.01-0.05,0.01-0.09,0.02-0.14c0.02-0.15,0.04-0.31,0.02-0.44
				c-0.02-0.1-0.14-0.22-0.21-0.23c-0.04-0.01-0.07,0-0.1,0.03c-0.05,0.05-0.08,0.14-0.08,0.23c0.01,0.13,0.03,0.27,0.05,0.4
				c0.02,0.12,0.04,0.25,0.05,0.37c0.01,0.1-0.01,0.19-0.03,0.28c-0.01,0.04-0.02,0.08-0.02,0.11l-0.01,0.08l-0.08-0.03
				c-0.03-0.01-0.07-0.02-0.11-0.03c-0.09-0.02-0.18-0.04-0.26-0.11c-0.11-0.09-0.2-0.19-0.3-0.3c-0.05-0.05-0.1-0.11-0.15-0.16
				c-0.06-0.06-0.12-0.09-0.17-0.09c-0.04,0-0.09,0.03-0.14,0.09c-0.06,0.07-0.08,0.15-0.08,0.22c0.01,0.06,0.04,0.12,0.1,0.17
				c0.15,0.11,0.33,0.2,0.54,0.27c0.02,0.01,0.04,0.01,0.07,0.02c0.15,0.04,0.33,0.09,0.33,0.37c0,0.26-0.18,0.31-0.32,0.35
				c-0.02,0.01-0.04,0.01-0.06,0.02c-0.22,0.07-0.42,0.18-0.58,0.3c-0.03,0.03-0.06,0.2-0.03,0.28c0.01,0.04,0.13,0.08,0.22,0.09
				c0.06,0,0.15-0.04,0.22-0.11c0.05-0.05,0.1-0.11,0.16-0.17c0.06-0.08,0.13-0.16,0.21-0.22c0.09-0.07,0.27-0.15,0.38-0.08
				c0.11,0.06,0.13,0.3,0.11,0.4c-0.02,0.18-0.07,0.35-0.1,0.47C14.81,20.2,14.8,20.24,14.79,20.27z M19.06,19.65
				c-0.12,0-0.28-0.14-0.3-0.26c-0.03-0.22-0.01-0.44,0-0.65l0-0.08c0-0.05,0.02-0.1,0.04-0.14c0.01-0.04,0.03-0.07,0.03-0.09
				c-0.01-0.23-0.04-0.27-0.06-0.28c-0.02-0.01-0.13,0.02-0.21,0.08c-0.06,0.05-0.1,0.11-0.15,0.17c-0.06,0.08-0.13,0.16-0.21,0.22
				c-0.13,0.08-0.29,0.13-0.49,0.15c-0.06,0-0.1-0.05-0.13-0.1c-0.03-0.04-0.11-0.19-0.07-0.26c0.11-0.21,0.23-0.35,0.36-0.44
				c0.09-0.06,0.18-0.08,0.28-0.1c0.07-0.02,0.14-0.03,0.2-0.07c0.08-0.04,0.16-0.15,0.16-0.2c0-0.05-0.08-0.16-0.15-0.2
				c-0.09-0.05-0.18-0.08-0.28-0.11c-0.12-0.04-0.24-0.08-0.35-0.15c-0.12-0.08-0.2-0.18-0.23-0.3c-0.03-0.12,0-0.25,0.08-0.37
				c0.06-0.09,0.14-0.14,0.23-0.15c0.12-0.01,0.25,0.06,0.38,0.19c0.05,0.05,0.09,0.1,0.13,0.15c0.08,0.09,0.15,0.18,0.24,0.25
				c0.05,0.04,0.12,0.06,0.19,0.08c0.01,0,0.02,0.01,0.03,0.01c0-0.02,0.01-0.03,0.01-0.05c0.02-0.08,0.05-0.16,0.04-0.23
				c-0.01-0.1-0.04-0.21-0.06-0.32c-0.03-0.1-0.05-0.21-0.07-0.31c-0.02-0.18,0.03-0.37,0.13-0.49c0.06-0.07,0.14-0.11,0.21-0.12
				c0,0,0.01,0,0.01,0c0.21,0,0.35,0.22,0.38,0.58l0,0.01l0,0.01c-0.01,0.06-0.03,0.12-0.05,0.19c-0.04,0.14-0.07,0.29-0.09,0.43
				c-0.01,0.07,0.01,0.15,0.03,0.23c0,0.02,0.01,0.03,0.01,0.05c0.01,0,0.02-0.01,0.04-0.01c0.07-0.02,0.14-0.03,0.18-0.07
				c0.09-0.08,0.17-0.17,0.25-0.28c0.05-0.06,0.1-0.12,0.15-0.17c0.09-0.1,0.19-0.15,0.29-0.15c0.09,0,0.18,0.03,0.26,0.11
				c0.08,0.08,0.13,0.2,0.12,0.33c-0.01,0.14-0.07,0.25-0.17,0.32c-0.18,0.12-0.38,0.2-0.59,0.27c-0.02,0.01-0.05,0.01-0.07,0.02
				c-0.13,0.04-0.19,0.06-0.2,0.2c-0.01,0.17,0.07,0.21,0.25,0.25c0.19,0.04,0.39,0.12,0.56,0.23c0.23,0.14,0.3,0.35,0.17,0.56
				c-0.06,0.1-0.13,0.16-0.22,0.18c-0.1,0.02-0.22-0.01-0.32-0.08c-0.11-0.08-0.2-0.18-0.29-0.28c-0.04-0.05-0.09-0.09-0.13-0.14
				c-0.02-0.02-0.03-0.03-0.05-0.05c-0.04-0.04-0.08-0.09-0.12-0.1c-0.04-0.02-0.08-0.01-0.11,0.01c-0.05,0.04-0.07,0.14-0.05,0.24
				c0.01,0.05,0.02,0.1,0.03,0.15c0.04,0.16,0.07,0.32,0.1,0.48c0.01,0.07,0.03,0.25-0.04,0.37c-0.06,0.12-0.19,0.24-0.31,0.25
				L19.06,19.65z M18.76,18.01c0.04,0,0.07,0.01,0.1,0.03c0.08,0.06,0.11,0.2,0.12,0.39c0,0.06-0.02,0.11-0.04,0.16
				c-0.01,0.03-0.03,0.06-0.03,0.09l0,0.08c-0.01,0.21-0.03,0.42,0,0.63c0,0.04,0.11,0.14,0.15,0.13c0.06-0.01,0.15-0.09,0.2-0.18
				c0.03-0.06,0.04-0.17,0.02-0.28c-0.02-0.16-0.06-0.32-0.09-0.47c-0.01-0.05-0.02-0.1-0.03-0.15c-0.03-0.16,0-0.3,0.09-0.38
				c0.07-0.06,0.16-0.08,0.26-0.04c0.07,0.03,0.12,0.08,0.18,0.14c0.01,0.02,0.03,0.03,0.04,0.04c0.05,0.05,0.09,0.09,0.13,0.14
				c0.09,0.1,0.17,0.19,0.27,0.26c0.07,0.05,0.15,0.07,0.21,0.06c0.05-0.01,0.1-0.05,0.13-0.11c0.1-0.18-0.01-0.3-0.12-0.37
				c-0.16-0.1-0.34-0.17-0.51-0.21c-0.15-0.03-0.37-0.08-0.36-0.4c0.01-0.25,0.17-0.29,0.3-0.33c0.02-0.01,0.04-0.01,0.06-0.02
				c0.2-0.07,0.39-0.14,0.55-0.25c0.06-0.04,0.1-0.12,0.11-0.21c0.01-0.09-0.02-0.17-0.07-0.22c-0.05-0.05-0.11-0.07-0.16-0.07
				c-0.06,0-0.13,0.04-0.19,0.11c-0.05,0.05-0.1,0.11-0.14,0.17c-0.08,0.1-0.17,0.21-0.27,0.29c-0.07,0.06-0.16,0.08-0.25,0.1
				c-0.04,0.01-0.07,0.01-0.1,0.02l-0.08,0.02l-0.02-0.08c-0.01-0.04-0.02-0.08-0.03-0.11c-0.02-0.09-0.05-0.19-0.04-0.28
				c0.02-0.15,0.05-0.31,0.09-0.45c0.01-0.06,0.03-0.11,0.04-0.17c-0.01-0.22-0.09-0.44-0.24-0.43c-0.04,0-0.07,0.02-0.11,0.07
				c-0.08,0.09-0.12,0.24-0.1,0.38c0.01,0.1,0.04,0.19,0.06,0.3c0.03,0.11,0.06,0.22,0.07,0.34c0.01,0.1-0.02,0.19-0.05,0.28
				c-0.01,0.04-0.02,0.07-0.03,0.11l-0.02,0.08l-0.08-0.03c-0.03-0.01-0.06-0.02-0.1-0.03c-0.08-0.02-0.17-0.05-0.24-0.11
				c-0.09-0.08-0.18-0.18-0.26-0.27c-0.04-0.05-0.08-0.1-0.13-0.15c-0.09-0.1-0.19-0.15-0.26-0.15c-0.05,0-0.09,0.03-0.12,0.08
				c-0.06,0.09-0.08,0.18-0.06,0.26c0.02,0.08,0.07,0.15,0.17,0.21c0.1,0.06,0.21,0.1,0.33,0.14c0.1,0.03,0.2,0.07,0.3,0.12
				c0.1,0.05,0.23,0.2,0.23,0.33c0,0.13-0.14,0.27-0.24,0.33c-0.08,0.04-0.16,0.06-0.24,0.08c-0.09,0.02-0.17,0.04-0.23,0.08
				c-0.1,0.07-0.2,0.19-0.31,0.37c0.01,0.04,0.05,0.13,0.08,0.16c0.16-0.01,0.3-0.06,0.4-0.12c0.07-0.04,0.12-0.11,0.18-0.19
				c0.05-0.07,0.11-0.14,0.18-0.19C18.54,18.07,18.66,18.01,18.76,18.01z M17.64,18.45L17.64,18.45L17.64,18.45z M29.8,16.99
				l-0.09-0.08c-0.07-0.06-0.13-0.12-0.2-0.17c-0.13-0.12-0.25-0.22-0.38-0.3c-0.42-0.26-0.82-0.48-1.2-0.67
				c-0.21-0.1-0.29-0.24-0.26-0.47c0.02-0.15,0.03-0.31,0.04-0.5c0.01-0.09,0.01-0.2,0.02-0.32l0.01-0.12l0.1,0.07
				c0.14,0.09,0.27,0.18,0.4,0.26c0.3,0.19,0.58,0.37,0.85,0.56c0.16,0.11,0.32,0.24,0.47,0.37c0.09,0.07,0.18,0.15,0.27,0.22
				c0.15,0.12,0.19,0.25,0.13,0.44c-0.04,0.12-0.06,0.25-0.09,0.39c-0.01,0.07-0.03,0.14-0.04,0.22L29.8,16.99z M27.87,14.61
				c0,0.07-0.01,0.13-0.01,0.19c-0.01,0.2-0.02,0.35-0.04,0.51c-0.02,0.17,0.02,0.25,0.18,0.32c0.39,0.19,0.79,0.41,1.21,0.68
				c0.14,0.09,0.26,0.2,0.4,0.32c0.03,0.03,0.07,0.06,0.1,0.09c0.01-0.03,0.01-0.07,0.02-0.1c0.03-0.15,0.06-0.28,0.1-0.41
				c0.04-0.13,0.02-0.2-0.08-0.28c-0.09-0.07-0.18-0.15-0.27-0.22c-0.15-0.12-0.3-0.25-0.46-0.36c-0.27-0.19-0.55-0.37-0.84-0.55
				C28.08,14.74,27.97,14.67,27.87,14.61z M18.37,16.12l-0.38-0.15l0.35-0.35l0-0.01l0.01,0l0.01-0.01l0.01,0.01l0.11,0.02l0,0.05
				l-0.01,0.01L18.37,16.12z M18.24,15.92l0.02,0.01l0.01-0.04L18.24,15.92z M19.74,15.74l-0.05-0.07
				c-0.41-0.56-0.41-0.56-0.74-0.61l-0.1-0.02l0.05-0.09c0.21-0.37,0.49-0.55,1.03-0.69l0.06-0.01l0.37,0.86L19.74,15.74z
				 M19.08,14.94c0.28,0.05,0.34,0.12,0.68,0.58l0.43-0.43l-0.28-0.66C19.5,14.53,19.26,14.68,19.08,14.94z M26.07,15.11H23.5l0-0.3
				c0-0.2,0-0.41,0-0.62c0-0.26,0.21-0.27,0.31-0.27c0.01,0,0.02,0,0.03,0c0.54-0.03,1.07-0.06,1.58-0.07
				c0.14,0,0.29,0.02,0.44,0.03c0.07,0.01,0.14,0.02,0.22,0.03l0.07,0.01L26.07,15.11z M23.64,14.96h2.29L26,14.03
				c-0.05-0.01-0.1-0.01-0.15-0.02c-0.15-0.02-0.28-0.04-0.42-0.03c-0.5,0.01-1.03,0.03-1.57,0.07c-0.01,0-0.02,0-0.04,0
				c-0.13,0-0.17,0.02-0.17,0.13c0,0.21,0,0.42,0,0.62L23.64,14.96z M20.75,14.83c-0.01,0-0.02,0-0.03,0
				c-0.3-0.03-0.32-0.35-0.33-0.45c0-0.02,0-0.04,0-0.06l-0.04-0.01l0.02-0.07c0.02-0.06,0.03-0.13,0.05-0.19
				c0.04-0.15,0.08-0.3,0.1-0.45c0.01-0.1-0.03-0.24-0.05-0.26c-0.02-0.01-0.13,0.01-0.21,0.08c-0.06,0.05-0.11,0.11-0.17,0.18
				c-0.05,0.07-0.11,0.13-0.17,0.19c-0.05,0.05-0.19,0.16-0.36,0.16c-0.12,0.01-0.29-0.07-0.34-0.18c-0.04-0.11-0.04-0.35,0.06-0.43
				c0.14-0.12,0.3-0.2,0.46-0.28c0.03-0.02,0.07-0.03,0.1-0.05c0.04-0.02,0.08-0.02,0.12-0.03c0.02,0,0.05,0,0.05-0.01
				c0.07-0.07,0.17-0.17,0.18-0.26c0-0.03-0.09-0.13-0.17-0.18c-0.08-0.04-0.17-0.07-0.26-0.1c-0.12-0.04-0.25-0.09-0.37-0.16
				c-0.12-0.08-0.19-0.17-0.21-0.29c-0.02-0.11,0.01-0.24,0.09-0.36c0.06-0.09,0.14-0.14,0.23-0.15c0.11-0.01,0.23,0.05,0.35,0.18
				c0.06,0.06,0.12,0.13,0.17,0.19c0.08,0.09,0.15,0.18,0.24,0.25c0.07,0.06,0.19,0.09,0.21,0.07c0.02-0.02,0.06-0.15,0.05-0.27
				c-0.01-0.12-0.03-0.24-0.05-0.36c-0.02-0.13-0.05-0.27-0.06-0.41c-0.02-0.26,0.11-0.43,0.33-0.45c0.09-0.01,0.18,0.02,0.24,0.08
				c0.08,0.07,0.12,0.18,0.12,0.31c0,0.25-0.04,0.49-0.1,0.76c0,0.03-0.01,0.05-0.02,0.08c-0.03,0.14-0.05,0.22,0.04,0.28
				c0.09,0.06,0.14,0.03,0.26-0.12l0.07-0.08c0.12-0.14,0.25-0.29,0.4-0.4c0.11-0.08,0.33-0.1,0.44-0.01
				c0.08,0.07,0.14,0.16,0.15,0.27c0.01,0.11-0.02,0.21-0.1,0.3c-0.08,0.1-0.19,0.18-0.32,0.26c-0.08,0.04-0.16,0.06-0.24,0.08
				c-0.03,0.01-0.06,0.01-0.09,0.02c-0.03,0.01-0.05,0.01-0.08,0.02c-0.14,0.03-0.21,0.05-0.21,0.2c0,0.17,0.08,0.2,0.24,0.25
				c0.02,0.01,0.05,0.01,0.07,0.02c0.21,0.07,0.38,0.15,0.52,0.24c0.21,0.14,0.27,0.34,0.15,0.55c-0.07,0.12-0.16,0.17-0.22,0.18
				c-0.1,0.02-0.2-0.01-0.3-0.08c-0.16-0.12-0.31-0.27-0.45-0.41c-0.02-0.02-0.04-0.04-0.06-0.06c-0.1-0.12-0.13-0.14-0.21-0.09
				c-0.1,0.07-0.09,0.15-0.05,0.3c0.01,0.02,0.01,0.05,0.02,0.07c0.05,0.22,0.1,0.48,0.1,0.73c0,0.14-0.05,0.26-0.13,0.33
				C20.9,14.8,20.83,14.83,20.75,14.83z M20.52,14.2l0.01,0l0,0.09c0,0.02,0,0.05,0,0.07c0.02,0.27,0.11,0.31,0.2,0.32
				c0.06,0,0.1-0.01,0.14-0.04c0.05-0.05,0.08-0.13,0.08-0.23c0-0.24-0.05-0.48-0.09-0.7c0-0.02-0.01-0.05-0.02-0.07
				c-0.04-0.15-0.08-0.33,0.11-0.46c0.19-0.12,0.32,0.02,0.4,0.11c0.02,0.02,0.03,0.04,0.05,0.05c0.14,0.14,0.28,0.29,0.43,0.4
				c0.07,0.05,0.13,0.06,0.19,0.05c0.05-0.01,0.09-0.05,0.13-0.11c0.11-0.19-0.04-0.31-0.11-0.36c-0.13-0.09-0.29-0.16-0.49-0.22
				c-0.02-0.01-0.05-0.01-0.07-0.02c-0.15-0.04-0.34-0.1-0.34-0.38c0-0.27,0.19-0.31,0.32-0.34c0.02-0.01,0.05-0.01,0.07-0.02
				c0.03-0.01,0.06-0.02,0.09-0.02c0.07-0.02,0.14-0.04,0.2-0.07c0.12-0.07,0.21-0.14,0.28-0.22c0.05-0.06,0.07-0.13,0.07-0.2
				c-0.01-0.07-0.04-0.13-0.09-0.17c-0.05-0.04-0.2-0.03-0.27,0.02c-0.14,0.09-0.25,0.23-0.37,0.37l-0.07,0.08
				c-0.09,0.11-0.24,0.29-0.45,0.14c-0.17-0.12-0.13-0.29-0.1-0.43c0.01-0.02,0.01-0.05,0.02-0.07c0.05-0.26,0.09-0.5,0.09-0.73
				c0-0.09-0.03-0.16-0.07-0.21c-0.03-0.03-0.08-0.05-0.13-0.04c-0.2,0.01-0.2,0.21-0.2,0.3c0.01,0.13,0.03,0.27,0.06,0.4
				c0.02,0.12,0.04,0.25,0.05,0.37c0.01,0.08,0,0.33-0.11,0.4c-0.11,0.07-0.29,0-0.38-0.08c-0.09-0.08-0.18-0.18-0.26-0.27
				c-0.05-0.06-0.11-0.12-0.16-0.18c-0.09-0.09-0.18-0.14-0.24-0.13c-0.04,0-0.08,0.03-0.12,0.09c-0.06,0.09-0.09,0.18-0.07,0.25
				c0.01,0.07,0.06,0.14,0.15,0.19c0.1,0.07,0.21,0.11,0.34,0.15c0.09,0.03,0.19,0.07,0.28,0.11c0.09,0.05,0.26,0.19,0.25,0.31
				c-0.01,0.14-0.13,0.26-0.22,0.35c-0.04,0.04-0.1,0.05-0.15,0.05c-0.02,0-0.05,0-0.06,0.01c-0.03,0.02-0.07,0.03-0.1,0.05
				c-0.15,0.08-0.3,0.16-0.43,0.26c-0.03,0.03-0.05,0.19-0.02,0.27c0.02,0.04,0.12,0.09,0.2,0.09c0.08,0,0.18-0.05,0.27-0.13
				c0.05-0.05,0.1-0.11,0.15-0.17c0.06-0.07,0.12-0.14,0.19-0.2c0.09-0.07,0.27-0.15,0.38-0.08c0.1,0.06,0.13,0.28,0.12,0.4
				c-0.02,0.16-0.06,0.32-0.1,0.47C20.54,14.12,20.53,14.16,20.52,14.2z"/>
		</g>
		<g>
			<path class="st0" d="M15.78,14.28c-0.1-0.16-0.16-0.3-0.25-0.4c-0.71-0.76-0.82-1.65-0.49-2.7c0.11-0.35,0.25-0.38,0.5-0.15
				c0.68,0.64,0.97,1.59,0.67,2.59c-0.09,0.31-0.04,0.58,0.05,0.85c0.27-0.26,0.51-0.55,0.8-0.76c0.53-0.38,0.71-0.24,0.7,0.47
				c-0.02,1-0.4,1.75-1.23,2.18c-0.34,0.17-0.47,0.1-0.49-0.31c-0.01-0.27-0.1-0.35-0.34-0.34c-1.02,0.04-1.56-0.63-1.94-1.6
				c-0.1-0.25,0.02-0.43,0.29-0.45c0.56-0.03,1.11,0.01,1.52,0.52c0.03,0.03,0.06,0.06,0.1,0.09
				C15.67,14.29,15.69,14.28,15.78,14.28z M17.27,14.24c-0.54,0.26-0.87,0.91-0.79,1.56C16.97,15.58,17.33,14.89,17.27,14.24z
				 M15.79,13.42c0.21-0.65,0.05-1.35-0.4-1.76C15.19,12.31,15.34,13.03,15.79,13.42z M14.31,14.23c0.22,0.61,0.84,1.02,1.34,0.91
				C15.42,14.55,14.93,14.21,14.31,14.23z"/>
			<path class="st0" d="M16.25,16.53c-0.04,0-0.09-0.01-0.12-0.03c-0.1-0.06-0.15-0.19-0.17-0.44c-0.01-0.24-0.08-0.28-0.26-0.27
				c-0.03,0-0.06,0-0.09,0c-1.15,0-1.64-0.93-1.91-1.65c-0.07-0.18-0.03-0.3,0.01-0.38c0.05-0.07,0.14-0.16,0.34-0.17
				c0.56-0.04,1.14,0.01,1.57,0.54c-0.05-0.08-0.09-0.15-0.14-0.21c-0.7-0.74-0.86-1.65-0.51-2.77c0.07-0.21,0.14-0.31,0.25-0.34
				c0.14-0.04,0.28,0.08,0.37,0.16c0.72,0.69,0.98,1.68,0.69,2.67c-0.08,0.26-0.05,0.49,0.01,0.69c0.05-0.05,0.11-0.11,0.16-0.16
				c0.18-0.18,0.36-0.37,0.56-0.52c0.29-0.2,0.48-0.26,0.61-0.19c0.15,0.08,0.21,0.29,0.2,0.72c-0.02,1.07-0.45,1.82-1.27,2.24
				C16.46,16.48,16.35,16.53,16.25,16.53z M15.72,15.64c0.25,0,0.36,0.12,0.38,0.41c0.01,0.18,0.04,0.29,0.1,0.32
				c0.05,0.03,0.15,0.01,0.29-0.07c0.78-0.39,1.17-1.09,1.19-2.11c0.01-0.34-0.03-0.54-0.12-0.59c-0.08-0.04-0.23,0.02-0.46,0.18
				c-0.19,0.14-0.36,0.31-0.54,0.5c-0.08,0.08-0.16,0.17-0.25,0.25l-0.08,0.08l-0.04-0.11c-0.08-0.23-0.15-0.53-0.05-0.89
				c0.28-0.93,0.04-1.87-0.65-2.52c-0.13-0.12-0.2-0.14-0.23-0.13c-0.04,0.01-0.09,0.06-0.15,0.25c-0.34,1.06-0.18,1.92,0.48,2.63
				c0.07,0.07,0.12,0.16,0.17,0.26c0.03,0.05,0.05,0.1,0.09,0.15l0.07,0.11h-0.13c-0.03,0-0.06,0-0.07,0c-0.03,0-0.06,0-0.09-0.02
				c-0.04-0.03-0.08-0.06-0.11-0.1c-0.37-0.46-0.85-0.53-1.46-0.5c-0.11,0.01-0.19,0.04-0.23,0.1c-0.04,0.06-0.04,0.15,0,0.25
				c0.43,1.11,1,1.59,1.87,1.55C15.7,15.64,15.71,15.64,15.72,15.64z M16.41,15.9l-0.01-0.1c-0.08-0.68,0.27-1.35,0.83-1.63
				l0.09-0.05l0.01,0.1c0.06,0.69-0.31,1.4-0.84,1.63L16.41,15.9z M17.2,14.35c-0.43,0.26-0.69,0.78-0.66,1.33
				C16.93,15.46,17.21,14.9,17.2,14.35z M15.48,15.23c-0.49,0-1.03-0.41-1.23-0.97l-0.03-0.09l0.1,0c0.64-0.02,1.16,0.34,1.41,0.95
				l0.03,0.08l-0.08,0.02C15.6,15.22,15.54,15.23,15.48,15.23z M14.42,14.3c0.22,0.48,0.71,0.82,1.13,0.78
				C15.33,14.6,14.93,14.32,14.42,14.3z M15.82,13.54l-0.08-0.07c-0.46-0.4-0.63-1.16-0.42-1.84l0.03-0.11l0.08,0.08
				c0.47,0.43,0.64,1.17,0.42,1.84L15.82,13.54z M15.43,11.79c-0.14,0.55-0.01,1.14,0.33,1.49C15.89,12.74,15.77,12.17,15.43,11.79z
				"/>
		</g>
		<g>
			<path class="st0" d="M13.8,23.22c-0.22-0.09-0.47-0.14-0.67-0.29c-0.27-0.21-0.51-0.47-0.74-0.74c-0.15-0.17-0.07-0.33,0.1-0.44
				c0.84-0.53,1.96-0.26,2.52,0.61c0.32,0.49,0.23,1.01,0.04,1.52c-0.29,0.76-0.81,1.22-1.53,1.39c-0.28,0.07-0.4-0.05-0.38-0.37
				C13.2,24.26,13.43,23.71,13.8,23.22z M14.51,22.53c-0.3-0.54-1.2-0.7-1.53-0.4C13.41,22.66,13.98,22.82,14.51,22.53z
				 M14.74,23.28c-0.57,0.16-1.03,0.75-1.08,1.35C14.18,24.58,14.65,24.01,14.74,23.28z"/>
			<path class="st0" d="M13.39,25.36c-0.08,0-0.15-0.02-0.2-0.07c-0.09-0.07-0.12-0.2-0.11-0.4c0.04-0.6,0.24-1.14,0.61-1.64
				c-0.04-0.01-0.08-0.03-0.12-0.04c-0.16-0.06-0.33-0.11-0.48-0.22c-0.27-0.21-0.51-0.47-0.75-0.75c-0.09-0.11-0.1-0.21-0.09-0.27
				c0.02-0.1,0.09-0.2,0.2-0.27c0.88-0.55,2.03-0.27,2.62,0.63c0.36,0.56,0.22,1.14,0.05,1.58c-0.29,0.78-0.82,1.26-1.58,1.43
				C13.49,25.35,13.44,25.36,13.39,25.36z M13.44,21.55c-0.31,0-0.62,0.08-0.9,0.26c-0.08,0.05-0.13,0.11-0.14,0.17
				c-0.01,0.05,0.01,0.1,0.06,0.16c0.23,0.27,0.47,0.53,0.73,0.73c0.12,0.09,0.28,0.15,0.44,0.2c0.07,0.02,0.14,0.05,0.21,0.08
				l0.09,0.04l-0.06,0.07c-0.38,0.5-0.59,1.04-0.63,1.64c-0.01,0.14,0.01,0.24,0.06,0.28c0.04,0.04,0.12,0.04,0.23,0.02
				c0.71-0.16,1.21-0.62,1.48-1.34c0.16-0.41,0.29-0.95-0.04-1.46C14.6,21.85,14.02,21.55,13.44,21.55z M13.58,24.7l0.01-0.08
				c0.05-0.63,0.53-1.24,1.13-1.41l0.1-0.03l-0.01,0.11c-0.09,0.76-0.58,1.37-1.14,1.41L13.58,24.7z M14.65,23.38
				c-0.46,0.18-0.83,0.66-0.91,1.16C14.17,24.45,14.54,23.98,14.65,23.38z M13.98,22.75c-0.38,0-0.75-0.19-1.06-0.57l-0.04-0.05
				l0.05-0.05c0.16-0.14,0.44-0.2,0.75-0.15c0.39,0.06,0.73,0.28,0.89,0.57l0.04,0.06l-0.06,0.03
				C14.36,22.7,14.17,22.75,13.98,22.75z M13.08,22.14c0.39,0.44,0.88,0.57,1.33,0.36c-0.15-0.22-0.43-0.38-0.75-0.43
				C13.43,22.03,13.21,22.06,13.08,22.14z"/>
		</g>
		<g>
			<path class="st0" d="M19.61,27.46c-0.03,0.16-0.06,0.44-0.13,0.71c-0.06,0.24-0.19,0.29-0.38,0.17c-0.99-0.63-1.23-1.81-0.9-2.87
				c0.07-0.23,0.2-0.27,0.4-0.14C19.24,25.8,19.59,26.47,19.61,27.46z M18.54,25.91c-0.11,0.86,0.14,1.59,0.58,1.79
				C19.25,26.99,19.02,26.43,18.54,25.91z"/>
			<path class="st0" d="M19.26,28.48c-0.07,0-0.14-0.03-0.21-0.08c-0.93-0.6-1.3-1.76-0.93-2.95c0.04-0.14,0.11-0.22,0.2-0.25
				c0.09-0.03,0.19,0,0.31,0.08c0.7,0.49,1.03,1.19,1.05,2.18l0,0.01l0,0.01c-0.01,0.04-0.02,0.1-0.03,0.15
				c-0.03,0.16-0.06,0.36-0.11,0.56c-0.04,0.15-0.1,0.24-0.19,0.27C19.32,28.48,19.29,28.48,19.26,28.48z M18.39,25.33
				c-0.01,0-0.02,0-0.03,0c-0.05,0.02-0.09,0.1-0.11,0.16c-0.34,1.13,0,2.23,0.87,2.79c0.05,0.03,0.12,0.07,0.17,0.05
				c0.04-0.02,0.08-0.08,0.1-0.18c0.05-0.19,0.08-0.39,0.11-0.55c0.01-0.06,0.02-0.11,0.02-0.15c-0.02-0.94-0.33-1.6-0.99-2.06
				C18.5,25.37,18.44,25.33,18.39,25.33z M19.17,27.8l-0.08-0.04c-0.47-0.22-0.73-0.98-0.62-1.86l0.02-0.15l0.1,0.11
				c0.54,0.58,0.72,1.17,0.6,1.85L19.17,27.8z M18.59,26.08c-0.05,0.68,0.14,1.28,0.47,1.5C19.14,27.04,18.99,26.56,18.59,26.08z"/>
		</g>
		<g>
			<path class="st0" d="M25.58,36.14c-0.44,0-0.89,0-1.33,0c-0.18,0-0.35-0.02-0.34-0.29c0-0.25,0.16-0.28,0.33-0.28
				c0.9,0,1.8,0,2.71,0c0.17,0,0.33,0.04,0.33,0.28c0,0.24-0.15,0.29-0.32,0.29C26.49,36.14,26.04,36.14,25.58,36.14L25.58,36.14z"
				/>
			<path class="st0" d="M26.36,36.21c-0.13,0-0.26,0-0.39,0l-0.46,0l-0.31,0c-0.32,0-0.63,0-0.95,0c-0.11,0-0.24-0.01-0.33-0.1
				c-0.06-0.06-0.09-0.15-0.09-0.27c0.01-0.35,0.29-0.35,0.4-0.35c0.56,0,1.12,0,1.69,0c0.34,0,0.68,0,1.02,0c0.1,0,0.4,0,0.41,0.35
				c0,0.11-0.03,0.2-0.09,0.26c-0.07,0.07-0.17,0.1-0.31,0.1C26.76,36.21,26.56,36.21,26.36,36.21z M25.65,36.07l0.32,0
				c0.33,0,0.66,0,0.99,0c0.1,0,0.16-0.02,0.2-0.06c0.03-0.03,0.05-0.09,0.05-0.16c0-0.15-0.07-0.21-0.26-0.21
				c-0.34,0-0.68,0-1.02,0c-0.56,0-1.12,0-1.69,0c-0.17,0-0.26,0.03-0.26,0.21c0,0.08,0.01,0.14,0.05,0.17
				c0.04,0.04,0.12,0.05,0.23,0.05c0.32,0,0.63,0,0.95,0L25.65,36.07L25.65,36.07z"/>
		</g>
		<g>
			<path class="st0" d="M18.4,15.65c0-0.01,0-0.02,0-0.03C18.4,15.64,18.4,15.64,18.4,15.65L18.4,15.65z"/>
			<polygon class="st0" points="18.46,15.81 18.35,15.7 18.4,15.65 18.35,15.7 18.32,15.67 18.34,15.61 18.42,15.63 18.45,15.6 
				18.43,15.63 18.48,15.64 			"/>
		</g>
		<g>
			<path class="st0" d="M15.59,20.97c0.01-0.01,0.01-0.02,0.01-0.02S15.59,20.96,15.59,20.97L15.59,20.97z"/>
			<path class="st0" d="M15.61,21.09l-0.12-0.12l0.05-0.06c0.04-0.04,0.08-0.03,0.09-0.02l0,0l0.06,0.03L15.61,21.09z M15.59,20.97
				l-0.03,0.04L15.59,20.97z M15.6,20.95"/>
		</g>
		<g>
			<path class="st0" d="M28.07,19.34c0.01-0.13-0.01-0.27,0.03-0.39c0.03-0.1,0.13-0.17,0.2-0.25c0.07,0.08,0.16,0.14,0.21,0.24
				c0.04,0.08,0.03,0.18,0.03,0.28c0.03,1.97,0.44,3.83,1.28,5.57c0.41,0.86,0.89,1.66,1.49,2.36c0.22,0.26,0.44,0.51,0.66,0.76
				c0.11,0.12,0.21,0.25,0.08,0.41c-0.13,0.17-0.27,0.07-0.39-0.05c-0.98-0.97-1.73-2.13-2.33-3.43c-0.49-1.06-0.84-2.17-1.03-3.34
				c-0.12-0.71-0.18-1.43-0.26-2.15C28.06,19.35,28.07,19.34,28.07,19.34z"/>
			<path class="st0" d="M31.91,28.48c-0.11,0-0.21-0.08-0.29-0.16c-0.92-0.91-1.69-2.04-2.34-3.45c-0.5-1.08-0.85-2.21-1.04-3.36
				c-0.08-0.49-0.14-1-0.19-1.49c-0.02-0.22-0.05-0.44-0.07-0.67l-0.01-0.06L28,19.29c0-0.02,0-0.04,0-0.06c0-0.1,0-0.2,0.03-0.29
				c0.03-0.08,0.09-0.14,0.15-0.2c0.02-0.02,0.05-0.04,0.07-0.07l0.05-0.06l0.05,0.06c0.02,0.02,0.04,0.04,0.06,0.06
				c0.06,0.05,0.12,0.11,0.15,0.19c0.04,0.08,0.04,0.18,0.04,0.26l0,0.05c0.03,1.98,0.46,3.84,1.28,5.54
				c0.45,0.94,0.94,1.71,1.48,2.34l0.15,0.17c0.17,0.2,0.34,0.4,0.52,0.59c0.09,0.1,0.26,0.29,0.09,0.5
				c-0.06,0.07-0.12,0.11-0.2,0.12C31.92,28.48,31.91,28.48,31.91,28.48z M28.13,19.4c0.02,0.2,0.05,0.4,0.07,0.6
				c0.05,0.49,0.11,0.99,0.19,1.48c0.19,1.14,0.54,2.26,1.03,3.33c0.64,1.39,1.4,2.51,2.31,3.41c0.06,0.06,0.13,0.12,0.19,0.12
				l0.01,0c0.03,0,0.06-0.02,0.09-0.06c0.08-0.1,0.04-0.19-0.08-0.32c-0.18-0.2-0.35-0.4-0.52-0.6l-0.15-0.17
				c-0.55-0.64-1.04-1.42-1.5-2.37c-0.83-1.72-1.26-3.6-1.29-5.6c0-0.02,0-0.03,0-0.05c0-0.07,0-0.15-0.02-0.2
				c-0.03-0.05-0.07-0.1-0.12-0.15c-0.01-0.01-0.01-0.01-0.02-0.02c-0.01,0.01-0.01,0.01-0.02,0.02c-0.05,0.05-0.1,0.09-0.11,0.15
				c-0.02,0.07-0.02,0.16-0.02,0.25c0,0.04,0,0.08,0,0.12l0,0.05L28.13,19.4z"/>
		</g>
		<g>
			<path class="st0" d="M31.21,28.2c-0.01,0.26-0.19,0.38-0.33,0.26c-0.46-0.38-0.9-0.78-1.34-1.17c-0.04-0.03-0.07-0.08-0.11-0.12
				c-0.93-0.95-1.62-2.09-2.2-3.33c-0.05-0.12-0.12-0.24-0.13-0.36c-0.01-0.09,0.04-0.24,0.1-0.28c0.06-0.04,0.2,0,0.26,0.05
				c0.07,0.06,0.11,0.18,0.15,0.29c0.35,0.85,0.82,1.61,1.35,2.33c0.6,0.81,1.28,1.5,2.05,2.1C31.1,28.04,31.17,28.14,31.21,28.2z"
				/>
			<path class="st0" d="M31,28.58c-0.06,0-0.11-0.02-0.16-0.06c-0.35-0.29-0.69-0.59-1.03-0.89c-0.11-0.09-0.21-0.19-0.32-0.28
				c-0.03-0.02-0.05-0.05-0.07-0.08c-0.01-0.02-0.03-0.03-0.04-0.05c-0.82-0.84-1.53-1.9-2.22-3.35l-0.01-0.02
				c-0.05-0.11-0.11-0.24-0.13-0.37c-0.01-0.1,0.03-0.29,0.13-0.34c0.09-0.06,0.26-0.02,0.35,0.06c0.07,0.06,0.11,0.16,0.15,0.26
				c0.01,0.02,0.01,0.03,0.02,0.05c0.33,0.79,0.77,1.55,1.34,2.32c0.59,0.8,1.27,1.5,2.03,2.08c0.07,0.05,0.13,0.13,0.17,0.18
				c0.02,0.02,0.03,0.04,0.04,0.05l0.02,0.02l0,0.03c-0.01,0.17-0.08,0.31-0.19,0.36C31.06,28.57,31.03,28.58,31,28.58z
				 M27.27,23.26c-0.01,0-0.02,0-0.03,0.01c-0.03,0.02-0.07,0.13-0.06,0.21c0.01,0.11,0.06,0.22,0.11,0.32l0.01,0.02
				c0.68,1.43,1.38,2.48,2.19,3.31c0.02,0.02,0.03,0.04,0.05,0.06c0.02,0.02,0.03,0.04,0.05,0.06c0.11,0.09,0.21,0.19,0.32,0.28
				c0.33,0.29,0.68,0.6,1.02,0.89c0.04,0.03,0.07,0.04,0.1,0.02c0.04-0.02,0.09-0.08,0.11-0.2c-0.01-0.01-0.02-0.02-0.03-0.04
				c-0.04-0.05-0.09-0.11-0.14-0.16c-0.77-0.59-1.46-1.3-2.06-2.11c-0.58-0.78-1.02-1.54-1.36-2.35c-0.01-0.02-0.01-0.04-0.02-0.05
				c-0.03-0.08-0.07-0.16-0.11-0.2C27.38,23.28,27.31,23.26,27.27,23.26z"/>
		</g>
		<g>
			<path class="st0" d="M17.37,23.49c-0.21,0-0.34-0.16-0.33-0.36c0.01-0.22,0.13-0.32,0.31-0.34c0.17-0.01,0.33,0.18,0.31,0.37
				C17.63,23.36,17.53,23.47,17.37,23.49z"/>
			<path class="st0" d="M17.37,23.56L17.37,23.56c-0.12,0-0.22-0.04-0.3-0.12c-0.08-0.08-0.12-0.19-0.11-0.32
				c0.01-0.24,0.15-0.39,0.37-0.41c0.09-0.01,0.19,0.03,0.26,0.11c0.09,0.09,0.14,0.22,0.13,0.34
				C17.7,23.39,17.57,23.54,17.37,23.56L17.37,23.56z M17.35,22.86c0,0-0.01,0-0.01,0c-0.15,0.01-0.23,0.1-0.24,0.27
				c0,0.08,0.02,0.16,0.07,0.21c0.05,0.05,0.11,0.08,0.19,0.08c0.16-0.01,0.21-0.15,0.22-0.27c0.01-0.08-0.03-0.16-0.09-0.22
				C17.45,22.88,17.4,22.86,17.35,22.86z"/>
		</g>
		<g>
			<path class="st0" d="M20.73,12.35c0.19,0.01,0.33,0.19,0.32,0.38c-0.01,0.23-0.14,0.39-0.33,0.38c-0.18-0.01-0.31-0.18-0.3-0.41
				C20.44,12.49,20.56,12.37,20.73,12.35z"/>
			<path class="st0" d="M20.74,13.19c-0.01,0-0.01,0-0.02,0c-0.1,0-0.19-0.05-0.25-0.12c-0.08-0.09-0.12-0.22-0.11-0.36
				c0.02-0.24,0.15-0.4,0.36-0.42l0.01,0l0.01,0c0.23,0.01,0.4,0.21,0.39,0.46c-0.01,0.15-0.06,0.27-0.15,0.36
				C20.91,13.15,20.83,13.19,20.74,13.19z M20.73,12.43c-0.14,0.02-0.22,0.11-0.23,0.29c-0.01,0.1,0.02,0.2,0.08,0.26
				c0.04,0.05,0.09,0.07,0.15,0.07c0.06,0,0.11-0.02,0.15-0.05c0.06-0.06,0.1-0.15,0.1-0.26C20.98,12.57,20.87,12.44,20.73,12.43z"
				/>
		</g>
		<g>
			<path class="st0" d="M15.34,18.83c-0.02,0.18-0.1,0.34-0.3,0.35c-0.19,0.02-0.32-0.14-0.32-0.37c0-0.23,0.1-0.36,0.29-0.38
				C15.18,18.41,15.34,18.6,15.34,18.83z"/>
			<path class="st0" d="M15.01,19.26c-0.09,0-0.17-0.03-0.23-0.09c-0.09-0.08-0.14-0.21-0.14-0.36c-0.01-0.26,0.12-0.42,0.35-0.46
				c0.08-0.01,0.17,0.02,0.25,0.08c0.11,0.09,0.17,0.24,0.17,0.39l0,0l0,0c-0.02,0.25-0.15,0.4-0.37,0.42
				C15.04,19.26,15.02,19.26,15.01,19.26z M15.04,18.5c-0.01,0-0.01,0-0.02,0c-0.16,0.02-0.23,0.13-0.23,0.31
				c0,0.11,0.04,0.2,0.09,0.25c0.04,0.04,0.09,0.05,0.15,0.05c0.09-0.01,0.21-0.05,0.24-0.28c0-0.11-0.05-0.22-0.12-0.28
				C15.12,18.52,15.08,18.5,15.04,18.5z"/>
		</g>
		<g>
			<path class="st0" d="M19.1,17.21c0.17,0.02,0.27,0.14,0.27,0.36c0,0.23-0.13,0.4-0.31,0.4c-0.17,0-0.32-0.19-0.31-0.4
				C18.75,17.37,18.89,17.21,19.1,17.21z"/>
			<path class="st0" d="M19.07,18.04L19.07,18.04c-0.09,0-0.18-0.04-0.25-0.11c-0.09-0.09-0.14-0.22-0.14-0.36
				c0-0.25,0.18-0.43,0.42-0.43h0l0.01,0c0.21,0.02,0.34,0.18,0.34,0.43c0,0.15-0.05,0.28-0.13,0.37
				C19.24,18.01,19.16,18.04,19.07,18.04z M19.09,17.29c-0.16,0-0.27,0.12-0.27,0.29c0,0.1,0.03,0.19,0.1,0.26
				c0.04,0.04,0.1,0.07,0.15,0.07c0.05,0,0.1-0.02,0.14-0.06c0.06-0.06,0.09-0.16,0.09-0.26C19.3,17.4,19.23,17.3,19.09,17.29z"/>
		</g>
	</g>
</g>
</svg>
