<?xml version="1.0" encoding="utf-8"?>
<!-- Generator: Adobe Illustrator 24.0.1, SVG Export Plug-In . SVG Version: 6.00 Build 0)  -->
<svg version="1.1" id="Layer_1" xmlns="http://www.w3.org/2000/svg" xmlns:xlink="http://www.w3.org/1999/xlink" x="0px" y="0px"
	 viewBox="0 0 47.06 47.06" style="enable-background:new 0 0 47.06 47.06;" xml:space="preserve">
<style type="text/css">
	.st0{fill:#981D20;}
	.st1{fill:#FFFFFF;}
</style>
<g>
	<circle class="st0" cx="23.78" cy="23.84" r="20"/>
	<g>
		<g>
			<path class="st1" d="M33.89,23.81c0.01,2.38-0.72,4.52-2.21,6.36c-0.37,0.46-0.45,0.87-0.34,1.42c0.09,0.44,0.06,0.92,0.09,1.37
				c-0.44-0.13-0.9-0.2-1.3-0.41c-0.45-0.24-0.78-0.21-1.24,0.04c-3.83,2.12-7.6,1.98-11.17-0.55c-3.36-2.38-4.92-6.63-3.88-10.6
				c1.11-4.23,3.86-6.88,8.17-7.67C28.2,12.63,33.89,17.47,33.89,23.81z M30.62,31.9l-0.02,0.01c-0.21-1.25-0.44-2.5-0.62-3.75
				c-0.04-0.31-0.02-0.69,0.12-0.97c0.6-1.19,0.84-2.43,0.78-3.75c-0.15-3.79-3.21-6.74-7.09-6.82c-3.74-0.08-6.99,2.89-7.25,6.61
				c-0.38,5.45,4.94,9.31,9.99,7.27c0.31-0.12,0.75-0.1,1.06,0.03C28.62,30.94,29.61,31.44,30.62,31.9z M31.13,29.59
				c2.53-2.9,3.14-8.84-0.75-12.61c-3.81-3.68-9.79-3.62-13.48,0.18c-3.53,3.64-3.55,9.63-0.12,13.13c3.98,4.06,9.57,3.32,11.66,1.6
				c-1.14-0.73-1.14-0.73-2.41-0.36c-5.66,1.68-11.17-3.11-10.21-8.98c0.52-3.2,2.4-5.42,5.5-6.4c3.14-0.99,5.98-0.25,8.24,2.16
				c2.22,2.37,2.79,5.21,1.67,8.26C30.84,27.63,30.79,28.54,31.13,29.59z"/>
		</g>
		<g>
			<path class="st1" d="M37.85,18.39c-0.02,1.08-0.25,1.89-0.98,2.53c-0.17,0.15-0.21,0.51-0.2,0.77c0.1,3.53-0.27,6.98-1.57,10.29
				c-0.21,0.53-0.46,1.04-0.73,1.53c-0.18,0.33-0.45,0.59-0.88,0.34c-0.43-0.25-0.44-0.6-0.23-0.99c1.82-3.46,2.24-7.19,2.22-11.02
				c0-0.49-0.12-0.8-0.58-1.09c-1.59-0.98-1.96-3.96-0.7-5.35c0.52-0.57,1.19-0.67,1.9-0.21C37.28,15.98,37.79,17.15,37.85,18.39z"
				/>
		</g>
		<g>
			<path class="st1" d="M11.61,20.36c0.06-0.19,0.14-0.38,0.16-0.58c0.16-1.3,0.3-2.61,0.48-3.91c0.03-0.18,0.24-0.33,0.44-0.61
				c-0.13,1.83-0.24,3.42-0.34,5.01c0,0.02,0.15,0.05,0.27,0.09c0.2-1.61,0.39-3.19,0.58-4.77c0.59,0.01,0.74,0.23,0.7,0.65
				c-0.14,1.37-0.28,2.75-0.42,4.12c-0.06,0.55-0.33,0.91-0.89,1.07c-0.15,0.04-0.36,0.28-0.35,0.43c0.09,3.11,0.51,6.15,1.88,8.99
				c0.24,0.51,0.54,1.01,0.9,1.44c0.4,0.48,0.17,0.77-0.18,1.08c-0.43,0.39-0.69,0.09-0.93-0.24c-1.21-1.64-1.91-3.51-2.27-5.48
				c-0.37-2-0.57-4.03-0.85-6.11c-0.99-0.33-1.14-0.48-1.06-1.65c0.09-1.4,0.27-2.8,0.44-4.19c0.04-0.36,0.09-0.82,0.77-0.69
				c-0.11,0.75-0.25,1.49-0.33,2.24c-0.1,0.86-0.16,1.72-0.21,2.58c-0.01,0.16,0.12,0.33,0.19,0.5c0.08-0.16,0.21-0.31,0.23-0.47
				c0.18-1.42,0.34-2.84,0.53-4.25c0.02-0.16,0.2-0.29,0.31-0.43c0.06,0.18,0.18,0.38,0.16,0.55c-0.12,1.08-0.3,2.16-0.42,3.24
				c-0.05,0.44-0.01,0.9-0.01,1.34C11.46,20.32,11.53,20.34,11.61,20.36z"/>
		</g>
		<g>
			<path class="st1" d="M30.6,31.91l0.02-0.01L30.6,31.91z"/>
		</g>
	</g>
</g>
</svg>
