<?xml version="1.0" encoding="utf-8"?>
<!-- Generator: Adobe Illustrator 24.0.1, SVG Export Plug-In . SVG Version: 6.00 Build 0)  -->
<svg version="1.1" id="Layer_1" xmlns="http://www.w3.org/2000/svg" xmlns:xlink="http://www.w3.org/1999/xlink" x="0px" y="0px"
	 viewBox="0 0 47.06 47.06" style="enable-background:new 0 0 47.06 47.06;" xml:space="preserve">
<style type="text/css">
	.st0{fill:#EA2528;}
	.st1{fill:#FFFFFF;}
</style>
<g>
	<circle class="st0" cx="23.78" cy="23.84" r="20"/>
	<g>
		<g>
			<path class="st1" d="M28.88,28.81c0-0.05,0-0.1-0.01-0.14c-0.03-0.13-0.07-0.26-0.08-0.39c-0.01-0.33-0.01-0.65,0-0.98
				c0-0.12-0.04-0.15-0.15-0.16c-0.53-0.05-1.06-0.09-1.58-0.18c-0.83-0.15-1.65-0.4-2.43-0.76c-0.9-0.41-1.71-0.96-2.39-1.72
				c-0.53-0.6-0.9-1.29-1.04-2.1c-0.05-0.26-0.07-0.53-0.07-0.79c0-2.5,0-4.99,0-7.49c0-0.26,0.11-0.47,0.25-0.67
				c0.1-0.14,0.25-0.2,0.43-0.2c0.34,0,0.67-0.01,1.01,0c0.13,0,0.19-0.04,0.23-0.17c0.17-0.56,0.5-0.99,0.97-1.31
				c1.11-0.75,2.68-0.26,3.23,1c0.2,0.45,0.29,0.92,0.21,1.4c-0.13,0.87-0.57,1.52-1.33,1.87c-0.75,0.35-1.5,0.28-2.2-0.18
				c-0.43-0.28-0.69-0.72-0.88-1.21c-0.1-0.27-0.04-0.22-0.29-0.23c-0.1,0-0.21,0-0.31,0c-0.2,0-0.2,0-0.2,0.21
				c0,0.91,0,1.81,0,2.72c0,1.38,0.02,2.77-0.01,4.15c-0.02,0.93,0.3,1.69,0.91,2.31c0.3,0.31,0.64,0.6,1,0.83
				c0.67,0.42,1.39,0.74,2.15,0.96c1.23,0.35,2.48,0.43,3.75,0.33c0.49-0.04,0.98-0.1,1.46-0.2c0.85-0.19,1.66-0.49,2.42-0.95
				c0.55-0.32,1.04-0.71,1.45-1.21c0.48-0.58,0.71-1.26,0.71-2.04c-0.01-2.3,0-4.59,0-6.89c0-0.23,0-0.23-0.21-0.23
				c-0.14,0-0.28,0-0.43,0c-0.08,0-0.11,0.03-0.14,0.11c-0.2,0.65-0.59,1.14-1.16,1.46c-0.42,0.24-0.87,0.3-1.34,0.23
				c-0.81-0.12-1.41-0.58-1.75-1.36c-0.38-0.85-0.31-1.69,0.22-2.45c0.56-0.82,1.35-1.13,2.27-0.95c0.85,0.16,1.42,0.71,1.72,1.57
				c0.06,0.17,0.13,0.22,0.29,0.22c0.32-0.01,0.64,0,0.97,0c0.23,0,0.39,0.11,0.5,0.31c0.11,0.19,0.17,0.4,0.17,0.64
				c-0.01,2.49-0.01,4.98,0,7.48c0,0.96-0.31,1.8-0.87,2.54c-0.64,0.86-1.47,1.45-2.39,1.91c-0.63,0.31-1.28,0.54-1.95,0.71
				c-0.63,0.16-1.27,0.28-1.92,0.3c-0.14,0-0.27,0.03-0.41,0.04c-0.08,0.01-0.1,0.05-0.1,0.13c0,0.26,0,0.51,0,0.79
				c-0.05-0.03-0.07-0.04-0.06-0.04c0.02,0.15,0.05,0.32,0.05,0.49c0.01,0.98,0.01,1.95,0,2.93c-0.01,1.05-0.34,1.98-0.92,2.82
				c-0.48,0.69-1.09,1.21-1.81,1.57c-0.46,0.23-0.96,0.36-1.47,0.43c-0.43,0.06-0.85,0.03-1.27-0.04c-1.08-0.18-1.98-0.72-2.72-1.57
				c-0.49-0.57-0.87-1.22-1.04-1.98c-0.09-0.41-0.15-0.83-0.21-1.24c-0.01-0.09,0.03-0.18,0.02-0.27c0-0.09-0.03-0.19-0.03-0.28
				c-0.02-1.31-0.53-2.37-1.48-3.2c-0.36-0.32-0.78-0.54-1.23-0.7c-0.57-0.2-1.15-0.26-1.74-0.17c-0.68,0.1-1.31,0.37-1.86,0.83
				c-0.01,0.01-0.02,0.02-0.03,0.04c0.17,0.13,0.36,0.24,0.52,0.38c0.72,0.65,1.04,1.48,0.87,2.47c-0.17,0.97-0.72,1.65-1.61,1.99
				c-1.22,0.47-2.51-0.2-3.02-1.38c-0.57-1.29,0.02-2.89,1.26-3.44c0.3-0.13,0.6-0.2,0.92-0.23c0.05-0.01,0.11-0.03,0.15-0.07
				c0.57-0.61,1.25-1.04,2.02-1.28c0.65-0.2,1.31-0.25,1.98-0.15c1.38,0.22,2.45,0.95,3.25,2.15c0.39,0.59,0.66,1.25,0.74,1.98
				c0.04,0.4,0.07,0.8,0.08,1.2c0.02,1.23,0.47,2.26,1.33,3.08c0.43,0.41,0.93,0.68,1.47,0.87c0.52,0.18,1.06,0.21,1.59,0.15
				c0.65-0.08,1.25-0.33,1.79-0.74c0.72-0.54,1.22-1.27,1.48-2.16c0.11-0.37,0.16-0.78,0.18-1.17c0.03-0.75,0.01-1.51,0.01-2.27
				c0-0.07,0.02-0.13,0.04-0.2l0,0C28.85,28.85,28.87,28.83,28.88,28.81L28.88,28.81z M29,28.32L29,28.32L29,28.32z M29.05,28.66
				c-0.01-0.01-0.02-0.02-0.03-0.03c-0.01-0.02-0.02-0.04-0.03-0.06c-0.01-0.01-0.02-0.02-0.03-0.03c-0.01-0.02-0.02-0.04-0.03-0.06
				c-0.01-0.02-0.01-0.04-0.02-0.06c-0.01,0-0.01,0.01-0.02,0.01c0.01,0.01,0.03,0.03,0.04,0.04c0.01,0.02,0.02,0.04,0.03,0.06
				c0.01,0.01,0.02,0.02,0.03,0.03c0.01,0.02,0.02,0.04,0.03,0.06C29.04,28.64,29.05,28.65,29.05,28.66L29.05,28.66z M29.43,28.26
				c0,0.06,0,0.12,0,0.18c-0.08,0.04-0.16,0.04-0.23-0.03c-0.02-0.06-0.03-0.11-0.05-0.17c-0.01,0.01-0.03,0.01-0.04,0.02
				c0.03,0.05,0.06,0.1,0.09,0.15c0.06,0.13,0.14,0.11,0.23,0.03C29.49,28.39,29.49,28.33,29.43,28.26
				c-0.04-0.05-0.07-0.09-0.1-0.14c-0.01,0.01-0.02,0.02-0.03,0.03C29.34,28.19,29.38,28.22,29.43,28.26z M12.77,30.98
				c0.47,0.03,0.87-0.42,0.86-0.89c0-0.5-0.37-0.91-0.83-0.92c-0.48,0-0.87,0.4-0.87,0.91C11.93,30.61,12.35,31.01,12.77,30.98z"/>
		</g>
		<g>
			<path class="st1" d="M33.31,20.3c-0.03,2.43-1.93,4.46-4.33,4.34c-2.12-0.1-3.97-2-3.92-4.48c0.05-2.35,1.91-4.3,4.18-4.27
				C31.53,15.94,33.32,17.95,33.31,20.3z M29.18,17.85c-0.23,0-0.46,0.01-0.68,0c-0.24-0.01-0.36,0.16-0.36,0.38
				c0,0.24,0,0.47,0,0.71c0,0.24,0,0.24-0.22,0.24c-0.24,0-0.47,0-0.71,0c-0.2,0-0.3,0.1-0.3,0.31c0,0.52,0,1.05,0,1.57
				c0,0.22,0.1,0.31,0.31,0.32c0.24,0,0.48,0,0.73,0c0.18,0,0.19,0.01,0.19,0.21c0,0.25,0,0.5,0,0.75c0,0.25,0.1,0.35,0.33,0.35
				c0.46,0,0.92,0,1.38,0c0.28,0,0.36-0.08,0.37-0.38c0-0.25,0-0.49,0-0.74c0-0.13,0.04-0.19,0.17-0.19c0.25,0.01,0.49,0,0.74,0
				c0.22,0,0.33-0.1,0.33-0.34c0.01-0.51,0.01-1.02,0-1.52c0-0.24-0.1-0.34-0.33-0.34c-0.24,0-0.47,0-0.71,0c-0.2,0-0.2,0-0.2-0.22
				c0-0.25,0-0.5,0-0.75c0-0.21-0.13-0.36-0.34-0.35C29.65,17.86,29.42,17.85,29.18,17.85z"/>
		</g>
		<g>
			<path class="st1" d="M29.2,28.41c-0.03-0.05-0.06-0.1-0.09-0.15c0.01-0.01,0.03-0.01,0.04-0.02
				C29.17,28.3,29.18,28.36,29.2,28.41L29.2,28.41z"/>
		</g>
		<g>
			<path class="st1" d="M29.43,28.26c-0.04-0.04-0.09-0.08-0.13-0.12c0.01-0.01,0.02-0.02,0.03-0.03
				C29.36,28.17,29.39,28.22,29.43,28.26L29.43,28.26z"/>
		</g>
		<g>
			<path class="st1" d="M28.94,28.47c-0.01-0.01-0.03-0.03-0.04-0.04c0.01,0,0.01-0.01,0.02-0.01
				C28.93,28.44,28.93,28.46,28.94,28.47L28.94,28.47z"/>
		</g>
		<g>
			<path class="st1" d="M28.83,28.87c0.02-0.02,0.04-0.04,0.06-0.06C28.87,28.83,28.85,28.85,28.83,28.87z"/>
		</g>
		<g>
			<path class="st1" d="M28.94,28.48c0.01,0.02,0.02,0.04,0.03,0.06l0,0C28.96,28.52,28.95,28.5,28.94,28.48L28.94,28.48z"/>
		</g>
		<g>
			<path class="st1" d="M29,28.57c0.01,0.02,0.02,0.04,0.03,0.06l0,0C29.02,28.61,29.01,28.59,29,28.57L29,28.57z"/>
		</g>
		<g>
			<path class="st1" d="M29.05,28.66L29.05,28.66L29.05,28.66z"/>
		</g>
		<g>
			<path class="st1" d="M29,28.33L29,28.33L29,28.33z"/>
		</g>
		<g>
			<path class="st1" d="M29,28.32L29,28.32L29,28.32z"/>
		</g>
		<g>
			<path class="st1" d="M28.97,28.54c0.01,0.01,0.02,0.02,0.03,0.03l0,0C28.99,28.56,28.98,28.55,28.97,28.54L28.97,28.54z"/>
		</g>
		<g>
			<path class="st1" d="M29.03,28.63c0.01,0.01,0.02,0.02,0.03,0.03l0,0C29.05,28.65,29.04,28.64,29.03,28.63L29.03,28.63z"/>
		</g>
		<g>
			<polygon class="st1" points="28.79,27.98 28.79,29.78 29.58,29.78 29.58,27.75 			"/>
		</g>
	</g>
</g>
</svg>
