<?xml version="1.0" encoding="utf-8"?>
<!-- Generator: Adobe Illustrator 24.0.1, SVG Export Plug-In . SVG Version: 6.00 Build 0)  -->
<svg version="1.1" id="Layer_1" xmlns="http://www.w3.org/2000/svg" xmlns:xlink="http://www.w3.org/1999/xlink" x="0px" y="0px"
	 viewBox="0 0 47.06 47.06" style="enable-background:new 0 0 47.06 47.06;" xml:space="preserve">
<style type="text/css">
	.st0{fill:#0E6464;}
	.st1{fill:#FFFFFF;}
</style>
<g>
	<circle class="st0" cx="23.78" cy="23.84" r="20"/>
	<g>
		<path class="st1" d="M34.13,29.18c0.25-0.49,0.47-1,0.65-1.53c0.08-0.23,0.15-0.47,0.22-0.71l2.89-0.23
			c0.19-0.93,0.29-1.89,0.29-2.88c0-0.87-0.08-1.72-0.23-2.55l-2.88-0.29c-0.06-0.24-0.12-0.47-0.2-0.71
			c-0.17-0.53-0.38-1.05-0.62-1.54c-0.07-0.14-0.15-0.28-0.23-0.42l1.89-2.22c-1.07-1.68-2.48-3.13-4.14-4.24l-2.27,1.84
			c-0.13-0.08-0.26-0.16-0.4-0.23c-0.49-0.25-1-0.47-1.52-0.65c-0.22-0.08-0.45-0.15-0.68-0.21l-0.25-2.89
			c-0.93-0.19-1.9-0.29-2.88-0.29c-0.87,0-1.71,0.08-2.54,0.23l-0.31,2.88c-0.23,0.06-0.47,0.12-0.7,0.19
			c-0.53,0.17-1.05,0.38-1.54,0.61c-0.17,0.08-0.33,0.18-0.49,0.26l-2.22-1.89c-1.65,1.07-3.07,2.46-4.17,4.09l1.85,2.27
			c-0.08,0.13-0.16,0.27-0.23,0.4c-0.25,0.48-0.47,1-0.65,1.52c-0.08,0.23-0.15,0.46-0.22,0.7l-2.89,0.23
			c-0.19,0.93-0.29,1.9-0.29,2.88c0,0.87,0.08,1.72,0.23,2.54l2.88,0.3c0.06,0.24,0.12,0.47,0.2,0.7c0.17,0.53,0.38,1.05,0.61,1.54
			c0.07,0.14,0.15,0.28,0.23,0.42l-1.89,2.22c1.07,1.68,2.48,3.13,4.14,4.24l2.27-1.84c0.13,0.08,0.26,0.16,0.4,0.23
			c0.49,0.25,1,0.47,1.52,0.65c0.23,0.08,0.46,0.15,0.7,0.22l0.23,2.89c0.93,0.19,1.89,0.29,2.88,0.29c0.87,0,1.72-0.08,2.54-0.23
			l0.29-2.88c0.24-0.06,0.48-0.12,0.71-0.2c0.53-0.17,1.05-0.38,1.54-0.62c0.17-0.08,0.33-0.17,0.49-0.26l2.22,1.89
			c1.65-1.07,3.08-2.46,4.17-4.1l-1.84-2.27C33.97,29.44,34.06,29.31,34.13,29.18z M23.78,33.26c-5.2,0-9.42-4.22-9.42-9.42
			s4.22-9.42,9.42-9.42c5.2,0,9.42,4.22,9.42,9.42S28.98,33.26,23.78,33.26z"/>
		<g>
			<path class="st1" d="M20.81,16.31c-3.12,1.23-5.13,4.18-5.13,7.52c0,0.38,0.03,0.77,0.1,1.23l0.02,0.11h1.56l-0.03-0.15
				c-0.08-0.42-0.11-0.8-0.11-1.19c0-0.9,0.19-1.79,0.55-2.61v8.06l0.03,0.04c0.36,0.39,0.75,0.74,1.16,1.05l0.2,0.12V19.2
				c0.52-0.51,1.11-0.93,1.75-1.24l0.07-0.03v-1.67L20.81,16.31z"/>
			<path class="st1" d="M29.64,18.27l-0.46,1.48c0.86,1.14,1.38,2.55,1.38,4.09c0,0.79-0.14,1.54-0.38,2.24l-0.05-0.21
				c0,0,0,0,0,0.01l-1.66-6.93L28,16.94c-0.38-0.23-0.79-0.44-1.21-0.61v1.44v12.14v1.44c0.52-0.21,1.01-0.46,1.47-0.76l0-1.65
				l0.01-4.03l0.76,3.24l0.36,1.53c1.53-1.47,2.49-3.54,2.49-5.83C31.88,21.68,31.03,19.72,29.64,18.27z"/>
			<path class="st1" d="M23.8,15.76c-0.74,0-1.45,0.11-2.12,0.29v1.36v6.38h2.76l-0.02,6.63v0.16c-0.2,0.02-0.41,0.03-0.62,0.03
				c-0.22,0-0.44-0.01-0.66-0.04v-0.15v-5.46h-1.47v5.31v1.36c0.68,0.18,1.39,0.29,2.12,0.29c0.74,0,1.46-0.11,2.15-0.3v-1.37v-7.99
				h-2.8v-5.08v-0.08c0.22-0.02,0.44-0.04,0.66-0.04c0.21,0,0.42,0.01,0.63,0.03v0.08v3.92h1.51v-3.68v-1.37
				C25.26,15.87,24.54,15.76,23.8,15.76z"/>
		</g>
	</g>
</g>
</svg>
