<?xml version="1.0" encoding="utf-8"?>
<!-- Generator: Adobe Illustrator 24.0.1, SVG Export Plug-In . SVG Version: 6.00 Build 0)  -->
<svg version="1.1" id="Layer_1" xmlns="http://www.w3.org/2000/svg" xmlns:xlink="http://www.w3.org/1999/xlink" x="0px" y="0px"
	 viewBox="0 0 47.06 47.06" style="enable-background:new 0 0 47.06 47.06;" xml:space="preserve">
<style type="text/css">
	.st0{fill:#3D59A6;}
	.st1{fill:#FFFFFF;}
</style>
<g>
	<circle class="st0" cx="23.78" cy="23.84" r="20"/>
	<g>
		<path class="st1" d="M39.96,33.73c-0.01-0.02-0.02-0.04-0.03-0.06c-0.12-0.15-0.28-0.24-0.45-0.33c-1.03-0.53-2.13-1.07-3.31-1.43
			c-0.19-0.06-0.4-0.11-0.59-0.01c-0.14,0.07-0.25,0.23-0.29,0.43c-0.02,0.12-0.02,0.25-0.02,0.37c0,0.05,0,0.09,0,0.14
			c0,0.05,0,0.1-0.01,0.15c-0.01,0.12-0.01,0.25,0.01,0.38c0.03,0.22,0.14,0.39,0.29,0.47c0.13,0.07,0.27,0.07,0.4,0.07l3.78,0
			c0.04,0,0.16-0.01,0.21-0.07c0.02-0.03,0.03-0.06,0.02-0.09L39.96,33.73z M39.42,33.66l-3.57,0c-0.01,0-0.34-0.03-0.37-0.39v-0.72
			c0-0.11,0.05-0.25,0.12-0.34c0.13-0.17,0.33-0.13,0.53-0.07c0.43,0.14,0.85,0.31,1.22,0.47c0.44,0.19,0.89,0.39,1.37,0.62
			c0.2,0.09,0.39,0.19,0.59,0.29l0.27,0.14c0,0,0.01,0,0.01,0.01c-0.01,0-0.03,0-0.05,0L39.42,33.66z M39.92,33.76L39.92,33.76
			L39.92,33.76L39.92,33.76z"/>
		<path class="st1" d="M33.65,25.32c-0.78-1.44-2.05-2.29-3.57-2.4c-1.57-0.11-3.18,0.53-4.19,1.68c-1.77,2-2.01,5.32-0.55,7.55
			c0.83,1.26,2.1,1.95,3.6,1.95c0.06,0,0.12,0,0.18,0c1.87-0.07,3.66-1.17,4.57-2.8C34.65,29.58,34.63,27.12,33.65,25.32z
			 M33.08,30.89c-0.78,1.4-2.31,2.34-3.91,2.4c-1.35,0.05-2.49-0.54-3.22-1.65c-1.25-1.91-1.05-4.76,0.47-6.48
			c0.8-0.91,2.03-1.45,3.28-1.45c0.1,0,0.2,0,0.3,0.01c1.3,0.09,2.38,0.82,3.04,2.05C33.87,27.32,33.89,29.42,33.08,30.89z"/>
		<path class="st1" d="M30.04,26.91c-0.48-0.12-1.06,0.08-1.47,0.49c-0.21,0.21-0.34,0.45-0.4,0.7c-0.13,0.55-0.04,1.12,0.23,1.52
			c0.2,0.3,0.5,0.5,0.86,0.56c0.08,0.01,0.16,0.02,0.24,0.02c0.35,0,0.71-0.12,1-0.34c0.67-0.51,0.84-1.54,0.39-2.3
			C30.69,27.23,30.38,26.99,30.04,26.91z M30.25,29.55c-0.27,0.21-0.63,0.3-0.94,0.25c-0.26-0.05-0.48-0.19-0.63-0.41
			c-0.2-0.31-0.27-0.77-0.17-1.19c0.04-0.19,0.15-0.37,0.3-0.53c0.25-0.25,0.58-0.4,0.9-0.4c0.07,0,0.15,0.01,0.21,0.02
			c0.25,0.06,0.48,0.24,0.62,0.49C30.89,28.36,30.76,29.16,30.25,29.55L30.25,29.55z"/>
		<path class="st1" d="M35.15,18.23c-0.29,0.17-0.55,0.39-0.77,0.65c-1.08,1.25-1.21,3.28-0.3,4.63c0.52,0.77,1.32,1.19,2.27,1.19
			c0.04,0,0.08,0,0.12,0c1.17-0.04,2.3-0.71,2.87-1.71c0.83-1.45,0.51-3.42-0.73-4.49C37.69,17.7,36.24,17.59,35.15,18.23z
			 M38.3,18.91c1.05,0.9,1.33,2.58,0.62,3.81c-0.48,0.84-1.44,1.41-2.43,1.44c-0.83,0.03-1.55-0.32-2.01-0.99
			c-0.76-1.12-0.64-2.88,0.26-3.93c0.19-0.22,0.41-0.4,0.65-0.55c0.4-0.23,0.86-0.35,1.31-0.35C37.28,18.34,37.86,18.53,38.3,18.91z
			"/>
		<path class="st1" d="M36.5,22.35c0.03,0,0.05,0,0.08,0c0.39,0,0.73-0.21,0.93-0.56c0.22-0.4,0.19-0.93-0.07-1.3
			c-0.16-0.23-0.4-0.36-0.68-0.38c-0.31-0.02-0.63,0.11-0.85,0.34c-0.31,0.33-0.41,0.83-0.26,1.24
			C35.8,22.07,36.11,22.32,36.5,22.35z M36.14,20.67c0.04-0.04,0.08-0.08,0.13-0.11c0.01,0,0.01-0.01,0.02-0.01
			c0.01,0,0.01-0.01,0.02-0.01c0.04-0.02,0.07-0.04,0.11-0.06c0.01,0,0.02-0.01,0.03-0.01l0.02-0.01c0.04-0.01,0.07-0.02,0.1-0.03
			c0.01,0,0.03,0,0.04,0l0.03,0c0.03,0,0.06-0.01,0.09-0.01c0.01,0,0.01,0,0.02,0c0.19,0.01,0.35,0.1,0.46,0.26
			c0.19,0.27,0.21,0.66,0.05,0.95c-0.13,0.23-0.35,0.37-0.6,0.39h0c-0.03,0-0.07,0-0.11,0c-0.27-0.02-0.49-0.19-0.59-0.45
			C35.84,21.28,35.92,20.91,36.14,20.67z"/>
		<path class="st1" d="M7.59,29.56l7.03,4.52l0.01,0.01h12.43l-9.19-4.52L7.59,29.56z M12.76,30.05l2.66,1.63h-3.38L9.6,30.05H12.76
			z M16.28,32.17l3.14,1.52h-4.46l-2.42-1.52H16.28z M17.11,31.68l-2.82-1.63h3.36l3.31,1.63H17.11z M20.67,33.69l-2.84-1.52h4.28
			l3.09,1.52H20.67z"/>
		<path class="st1" d="M26.45,20.38c0.16,0.07,0.32,0.14,0.48,0.21c1.06,0.47,2.18,0.97,3.27,1.45c1.09,0.49,2.22,0.99,3.29,1.46
			l0.02-0.04l0,0l0,0l0.02-0.04l0,0c-0.16-0.07-0.42-0.82-0.47-1.06c-0.08-0.38-0.12-0.77-0.12-1.16c0.02-0.83,0.24-1.59,0.64-2.2
			c0.57-0.86,1.35-1.36,2.4-1.54c0.2-0.03,0.56-0.05,0.72,0.01l0.03-0.09c-0.21-0.08-0.56-0.21-0.9-0.34
			c-0.31-0.11-0.6-0.23-0.8-0.3l-7.21-2.78c-1.41-0.5-2.59-0.5-3.49,0c-1.4,0.77-1.89,2.6-1.1,4.07
			C23.91,19.29,25.2,19.84,26.45,20.38z M34.27,17.54c-0.71,0.41-1.28,1.08-1.6,1.88c-0.2,0.49-0.31,1.02-0.32,1.56
			c-0.01,0.28,0.01,0.57,0.05,0.84c0.02,0.14,0.05,0.27,0.08,0.4c0,0.01,0.01,0.04,0.01,0.06c0.02,0.09,0.03,0.16,0.05,0.21
			c-0.33-0.16-0.68-0.31-1.01-0.45c-0.17-0.07-0.34-0.15-0.51-0.22l-2.56-1.13c-0.51-0.22-1.02-0.45-1.53-0.67
			c-0.14-0.06-0.28-0.12-0.42-0.18c-1.07-0.46-2.18-0.93-2.74-1.99c-0.66-1.24-0.25-2.77,0.92-3.42c0.38-0.21,0.82-0.31,1.31-0.31
			c0.5,0,1.05,0.11,1.65,0.32l6.25,2.41c0.17,0.07,0.42,0.15,0.66,0.22c0.18,0.06,0.36,0.12,0.51,0.17
			C34.62,17.35,34.52,17.4,34.27,17.54L34.27,17.54z"/>
		<path class="st1" d="M17.45,28.66c0.02,0.01,7.22,3.47,7.29,3.51l0.13,0.06l-0.06-0.13c-0.33-0.64-0.69-1.41-0.86-2.2
			c-0.02-0.08-0.03-0.16-0.05-0.23c-0.19-1.08-0.13-2.17,0.18-3.17c0.66-2.13,2.48-3.71,4.53-3.92c0.2-0.02,0.65-0.05,0.88,0
			l0.44,0.09l-0.41-0.18c-0.12-0.05-0.4-0.17-0.68-0.29c-0.28-0.12-0.56-0.24-0.67-0.29l-5.18-2.28c-1.57-0.69-3.05-1.34-4.76-0.91
			c-1.66,0.42-2.98,1.6-3.46,3.08C13.89,24.55,15.04,27.5,17.45,28.66z M27.46,22.36L27.46,22.36L27.46,22.36L27.46,22.36z
			 M26.98,22.38c-0.03,0.01-0.05,0.02-0.07,0.02h0c-0.17,0.05-0.35,0.12-0.54,0.21c-1.34,0.66-2.44,2.03-2.95,3.67
			c-0.14,0.44-0.23,0.89-0.27,1.34c-0.01,0.09-0.02,0.17-0.02,0.26c-0.02,0.31-0.02,0.63,0,0.95c0.04,0.59,0.11,1.29,0.39,1.95
			c-0.64-0.31-1.29-0.63-1.92-0.93c-0.26-0.12-0.51-0.25-0.77-0.37l-3.16-1.52c-2.07-1-3.07-3.54-2.31-5.92
			c0.41-1.27,1.54-2.28,2.97-2.64c0.33-0.08,0.64-0.12,0.95-0.12c1.09,0,2.11,0.45,3.17,0.91l4.55,2c0.1,0.04,0.16,0.07,0.22,0.09
			c0,0,0.01,0,0.01,0.01C27.15,22.33,27.07,22.36,26.98,22.38z"/>
		<path class="st1" d="M35.31,26.7c-0.27-0.77-0.68-1.34-1.21-1.72l0,0h0l-0.05,0.08h0c0.01,0.01,0.04,0.06,0.05,0.09
			c0.01,0.02,0.01,0.03,0.02,0.04c0.07,0.13,0.14,0.27,0.21,0.42c0.21,0.48,0.38,0.99,0.48,1.51c0.27,1.36,0.07,2.78-0.58,4.1
			c-0.28,0.57-0.62,1.12-1.03,1.63l-0.04,0.05l1.31,0.66l0.02-0.05c0.23-0.66,0.44-1.36,0.65-2.12
			C35.55,29.87,35.86,28.26,35.31,26.7z M33.73,32.73c0.34-0.6,0.65-1.14,0.89-1.68c0.5-1.13,0.67-2.35,0.49-3.63
			c-0.05-0.35-0.12-0.7-0.21-1.03c0.55,1.19,0.38,2.95,0.38,2.97c-0.07,0.94-0.89,3.26-1.03,3.64L33.73,32.73z"/>
	</g>
</g>
</svg>
