<?xml version="1.0" encoding="utf-8"?>
<!-- Generator: Adobe Illustrator 24.0.1, SVG Export Plug-In . SVG Version: 6.00 Build 0)  -->
<svg version="1.1" id="Layer_1" xmlns="http://www.w3.org/2000/svg" xmlns:xlink="http://www.w3.org/1999/xlink" x="0px" y="0px"
	 viewBox="0 0 47.06 47.06" style="enable-background:new 0 0 47.06 47.06;" xml:space="preserve">
<style type="text/css">
	.st0{fill:#2E3285;}
	.st1{fill:#FFFFFF;}
</style>
<g>
	<circle class="st0" cx="23.78" cy="23.84" r="20"/>
	<g>
		<g>
			<path class="st1" d="M37.38,22.28c-0.99-1.09-2.04-1.68-3.26-1.77c-1.05-0.07-2.1-0.01-3.15-0.04c-0.41-0.01-0.5,0.21-0.49,0.64
				c0.01,1.45,0,2.89,0,4.34c0,0.72-0.02,1.44,0,2.15c0.01,0.45-0.12,0.62-0.51,0.62c-0.42,0-0.43-0.29-0.43-0.64
				c-0.02-3.08-0.01-6.16-0.08-9.24c-0.01-0.69-0.17-1.44-0.44-2.06c-0.38-0.86-1.09-1.26-1.93-1.26c-6.03,0-12.07,0-18.1-0.02
				c-0.47,0-0.54,0.21-0.56,0.7C8.37,17.16,8.65,18.38,9.87,19c0.37,0.18,0.81,0.22,1.22,0.22c5.32,0.01,10.64,0.01,15.96,0.01
				c0.81,0,0.82,0,0.81,0.96c-0.01,2.45-0.03,4.9-0.04,7.35c0,0.38-0.04,0.62-0.44,0.62c-0.42,0-0.5-0.24-0.5-0.65
				c0-1.26-0.03-2.51,0-3.77c0.05-1.99-1.07-3.34-2.79-3.3c-3.73,0.08-7.46,0.04-11.19,0.01c-0.59,0-0.75,0.17-0.79,0.89
				c-0.11,2.18,1.18,3.41,2.85,3.36c3.19-0.09,6.39-0.01,9.59-0.04c0.53,0,0.74,0.15,0.72,0.81c-0.04,1.35,0,2.71-0.02,4.06
				c-0.01,0.46,0.14,0.61,0.52,0.6c1.9-0.02,3.81-0.01,5.71-0.01c0.3,0,0.47-0.08,0.62-0.46c0.49-1.27,1.29-2.07,2.54-2.16
				c0.74-0.05,1.88,0.67,2.22,1.5c0.47,1.14,0.82,1.37,1.9,1.08c0.18-0.05,0.37-0.49,0.39-0.75c0.04-0.87-0.01-1.74,0.01-2.61
				c0.01-0.48-0.08-0.76-0.55-0.76c-1.09,0.01-2.18,0-3.27-0.02c-1.41-0.03-2.36-1.28-2.09-3.3c0.02-0.14,0.31-0.32,0.48-0.32
				c0.99-0.03,1.98-0.01,2.98-0.02C36.88,22.31,37.06,22.29,37.38,22.28z"/>
		</g>
		<g>
			<path class="st1" d="M21.22,25.85c-1.6,0-3.2,0.02-4.81-0.01c-0.47-0.01-0.68,0.17-0.59,0.72c0.13,0.79,0.21,1.6,0.43,2.35
				c0.1,0.35,0.43,0.67,0.73,0.87c0.66,0.44,0.9,0.33,1.23-0.48c0.78-1.9,2.98-2.4,4.38-0.7c0.2,0.24,0.26,0.62,0.44,0.89
				c0.16,0.25,0.37,0.54,0.6,0.62c0.4,0.14,0.63-0.05,0.63-0.64c0.01-0.86-0.05-1.67-0.4-2.32c-0.28-0.51-0.64-0.73-0.82-0.85
				c-0.28-0.18-0.52-0.25-0.82-0.32C21.96,25.91,21.61,25.85,21.22,25.85z"/>
		</g>
		<g>
			<path class="st1" d="M22.27,30.54c0.07-1.13-0.71-1.89-1.93-1.82c-0.7,0.04-1.43,1.08-1.41,2.04c0.03,1.1,0.83,1.96,1.77,1.91
				C21.66,32.6,22.31,31.73,22.27,30.54z"/>
		</g>
		<g>
			<path class="st1" d="M32.97,30.72c0,1.11,0.71,1.95,1.65,1.95c0.94,0,1.69-0.89,1.68-2.01c-0.01-1.12-0.8-1.95-1.88-1.96
				C33.68,28.69,32.97,29.69,32.97,30.72z"/>
		</g>
		<g>
			<path class="st1" d="M35.35,28.05c-0.01-0.01-0.03-0.02-0.04-0.03C35.33,28.03,35.34,28.03,35.35,28.05L35.35,28.05z"/>
		</g>
		<g>
			<path class="st1" d="M15.47,29.44L15.47,29.44L15.47,29.44z"/>
		</g>
		<g>
			<path class="st1" d="M15.47,29.45L15.47,29.45L15.47,29.45z"/>
		</g>
		<g>
			<path class="st1" d="M34.28,28.05L34.28,28.05L34.28,28.05z"/>
		</g>
		<g>
			<path class="st1" d="M35.35,28.04L35.35,28.04L35.35,28.04z"/>
		</g>
		<g>
			<path class="st1" d="M34.29,28.05L34.29,28.05L34.29,28.05z"/>
		</g>
	</g>
</g>
</svg>
