<?xml version="1.0" encoding="utf-8"?>
<!-- Generator: Adobe Illustrator 24.0.1, SVG Export Plug-In . SVG Version: 6.00 Build 0)  -->
<svg version="1.1" id="Layer_1" xmlns="http://www.w3.org/2000/svg" xmlns:xlink="http://www.w3.org/1999/xlink" x="0px" y="0px"
	 viewBox="0 0 47.06 47.06" style="enable-background:new 0 0 47.06 47.06;" xml:space="preserve">
<style type="text/css">
	.st0{fill:#2A2766;}
	.st1{fill:none;}
	.st2{fill:#FFFFFF;}
</style>
<g>
	<circle class="st0" cx="23.78" cy="23.84" r="20"/>
	<g>
		<g>
			<path class="st1" d="M23.68,27.92H21.3v7.18c0,0.08,0.07,0.15,0.16,0.15h1.36c0.09,0,0.25,0.02,0.26-0.06l0.65-3.73l0,0l0,0l0,0
				l0,0l0.65,3.73c0.01,0.08,0.17,0.06,0.26,0.06h1.36c0.09,0,0.16-0.07,0.16-0.15v-7.18h-2.38H23.68z"/>
			<path class="st2" d="M23.76,26.62h-0.08h-3.52v10.02c0,0.12,0.11,0.22,0.24,0.22h2.64c0.13,0,0.23-0.09,0.24-0.2l0.44-5.2
				l0.44,5.2c0.01,0.11,0.11,0.2,0.24,0.2h2.64c0.13,0,0.24-0.1,0.24-0.22V26.62H23.76z M26.15,35.09c0,0.08-0.07,0.15-0.16,0.15
				h-1.36c-0.09,0-0.25,0.02-0.26-0.06l-0.65-3.73l0,0l0,0l0,0l0,0l-0.65,3.73c-0.01,0.08-0.17,0.06-0.26,0.06h-1.36
				c-0.09,0-0.16-0.07-0.16-0.15v-7.18h2.38h0.08h2.38V35.09z"/>
		</g>
		<g>
			<path class="st1" d="M27.01,13.96c-0.7,0.72-2.33,1.04-3.17,1.05c-0.03,0-0.05,0-0.08,0c-0.03,0-0.05,0-0.08,0
				c-0.83,0-2.46-0.32-3.17-1.05l-3.44,1.95l0.69,1.16l2.19-1.07v8.46h3.8h0.03h3.8v-8.46l2.19,1.07l0.69-1.16L27.01,13.96z"/>
			<path class="st2" d="M26.76,12.41c-0.91,0.93-1.92,1.41-2.99,1.42c-1.08-0.01-2.08-0.49-2.99-1.42l-5.25,2.98l1.76,3.07
				l1.52-0.87v8.21h4.95h0.03h4.95v-8.21l1.52,0.87l1.76-3.07L26.76,12.41z M29.76,17.08l-2.19-1.07v8.46h-3.8h-0.03h-3.8v-8.46
				l-2.19,1.07l-0.69-1.16l3.44-1.95c0.7,0.72,2.33,1.04,3.17,1.05c0.03,0,0.05,0,0.08,0c0.03,0,0.05,0,0.08,0
				c0.83,0,2.46-0.32,3.17-1.05l3.44,1.95L29.76,17.08z"/>
		</g>
		<path class="st2" d="M14.56,15.13l3.8-2.16c0,0-1.87-0.47-2.3-2.15l-5.29,1.45l0.9,3.45l1.37-0.24c0,0,0.47,1.02-1.65,5.84
			l6.7,2.12v-4.62l-1.07,0.61L14.56,15.13z M17.4,22.49l-5.1-1.6c0,0,1.54-3.42,1.29-5.82c0,0-0.1-0.32-1.38-0.06l-0.63-2.38
			l4.04-1.1c0,0,0.68,1.32,1.59,1.54l-3.41,1.79l3.05,5.35l0.64-0.37L17.4,22.49z"/>
		<path class="st2" d="M30.53,19.43l-1.07-0.61v4.62l6.7-2.12c-2.12-4.82-1.65-5.84-1.65-5.84l1.37,0.24l0.9-3.45l-5.29-1.45
			c-0.43,1.68-2.3,2.15-2.3,2.15l3.8,2.16L30.53,19.43z M30.07,19.84l0.64,0.37l3.05-5.35l-3.41-1.79c0.91-0.22,1.59-1.54,1.59-1.54
			l4.04,1.1l-0.63,2.38c-1.28-0.26-1.38,0.06-1.38,0.06c-0.25,2.39,1.29,5.82,1.29,5.82l-5.1,1.6L30.07,19.84z"/>
	</g>
</g>
</svg>
